<svg width="296" height="193" viewBox="0 0 296 193" fill="none" xmlns="http://www.w3.org/2000/svg">
<path d="M98.8232 53.8186C145.261 72.7618 213.915 89.6281 214.062 85.9616C224.098 56.4275 262.761 49.7185 285.317 75.3671C307.873 101.016 289.117 133.213 273.766 132.713C291.2 156.272 282.575 193.223 241.657 192.508C201.915 186.559 197.709 142.442 197.709 142.442C177.75 130.402 137.551 126.125 109.872 117.009C82.1918 107.892 95.1246 108.602 65.7058 125.271C36.2871 141.939 -5.18811 121.13 1.58729 87.4917C3.48499 70.2334 13.5389 63.434 21.1046 57.638C-1.45728 33.9519 27.582 1.70126 43.518 0.924365C60.9744 -1.65882 99.4397 11.0513 98.8232 53.8186Z" fill="#EBEBEB"/>
</svg>
