<svg width="141" height="86" viewBox="0 0 141 86" fill="none" xmlns="http://www.w3.org/2000/svg">
<path d="M126.262 48.7854H119.273V77.0393H126.262V66.4496L132.047 77.0393H139.981L131.699 62.8459L140.07 48.7946L132.436 48.7945L126.262 58.8788V48.7854Z" fill="#BC6726" stroke="#BC6726"/>
<path d="M103.45 11.5332H96.9642L97.0196 39.8203H103.633L109.324 25.5413L109.41 39.8203H116.035V11.5332H109.089L103.45 25.2795V11.5332Z" fill="#BC6726" stroke="#BC6726"/>
<path d="M103.45 44.7458H97.1922L97.0195 77.0148H103.633L109.324 62.7358L109.41 77.0148H116.035V48.7276H109.089L103.45 62.474V44.7458Z" fill="#BC6726" stroke="#BC6726"/>
<path d="M103.534 2.21403L97.9066 2.73441C99.8718 12.7564 115.107 11.0458 113.548 1L108.086 1.52036C108.201 4.77348 104.518 5.12438 103.534 2.21403Z" fill="#BC6726" stroke="#BC6726"/>
<path d="M25.8955 11.3569H17.3189L32.048 30.4574L23.2728 45.4408C21.87 48.8435 18.8255 49.0822 18.4375 45.4408H11.6323C12.7963 53.6788 17.751 56.3053 25.0637 53.8578V76.7374H31.9883V55.2308H36.5251V82.3921H43.39V48.1759H29.4719L51.1763 11.414L43.512 11.4139L35.8601 23.7223L25.8955 11.3569Z" fill="#BC6726" stroke="#BC6726"/>
<path d="M70.2465 11.3438H53.6474V29.8374C53.6474 32.6837 51.8125 33.305 49.9103 33.2477V39.7607C59.9779 40.9965 60.0982 33.2477 60.0982 29.5701C60.0982 24.5261 60.1099 18.3761 60.1099 18.3761H63.1569V39.7411H69.985L70.2465 11.3438Z" fill="#BC6726" stroke="#BC6726"/>
<path d="M15.8168 11.353H1.24613L1 39.7948H7.86899V18.3309H15.8168V11.353Z" fill="#BC6726" stroke="#BC6726"/>
<path fill-rule="evenodd" clip-rule="evenodd" d="M93.4109 11.4377H81.7626C72.4847 15.0958 72.4847 24.3999 80.0696 28.6392L72.4906 39.7977H80.397L86.9773 30.1968V43.2672H93.2755L93.4109 11.4377ZM87.2497 17.672H83.082C80.2237 19.2596 80.3104 22.3083 83.134 23.5579H87.2497V17.672Z" fill="#BC6726"/>
<path d="M81.7626 11.4377V10.9377H81.6676L81.5792 10.9726L81.7626 11.4377ZM93.4109 11.4377L93.9109 11.4399L93.913 10.9377H93.4109V11.4377ZM80.0696 28.6392L80.4832 28.9201L80.7897 28.4689L80.3136 28.2027L80.0696 28.6392ZM72.4906 39.7977L72.077 39.5168L71.5466 40.2977H72.4906V39.7977ZM80.397 39.7977V40.2977H80.6605L80.8094 40.0804L80.397 39.7977ZM86.9773 30.1968H87.4773V28.5829L86.5649 29.9141L86.9773 30.1968ZM86.9773 43.2672H86.4773V43.7672H86.9773V43.2672ZM93.2755 43.2672V43.7672H93.7733L93.7755 43.2693L93.2755 43.2672ZM83.082 17.672V17.172H82.9525L82.8392 17.2349L83.082 17.672ZM87.2497 17.672H87.7497V17.172H87.2497V17.672ZM83.134 23.5579L82.9316 24.0151L83.0283 24.0579H83.134V23.5579ZM87.2497 23.5579V24.0579H87.7497V23.5579H87.2497ZM81.7626 11.9377H93.4109V10.9377H81.7626V11.9377ZM80.3136 28.2027C76.6573 26.1592 74.8944 22.9394 75.0916 19.8524C75.2882 16.7741 77.4451 13.6775 81.946 11.9029L81.5792 10.9726C76.8023 12.856 74.3202 16.2405 74.0936 19.7886C73.8675 23.328 75.897 26.8798 79.8257 29.0756L80.3136 28.2027ZM72.9042 40.0787L80.4832 28.9201L79.656 28.3583L72.077 39.5168L72.9042 40.0787ZM80.397 39.2977H72.4906V40.2977H80.397V39.2977ZM86.5649 29.9141L79.9846 39.5151L80.8094 40.0804L87.3897 30.4795L86.5649 29.9141ZM87.4773 43.2672V30.1968H86.4773V43.2672H87.4773ZM93.2755 42.7672H86.9773V43.7672H93.2755V42.7672ZM92.9109 11.4356L92.7755 43.2651L93.7755 43.2693L93.9109 11.4399L92.9109 11.4356ZM83.082 18.172H87.2497V17.172H83.082V18.172ZM83.3363 23.1007C82.0629 22.5371 81.4909 21.6155 81.4772 20.7339C81.4634 19.846 82.0138 18.8373 83.3248 18.1091L82.8392 17.2349C81.2919 18.0943 80.4565 19.4038 80.4773 20.7495C80.4983 22.1016 81.3814 23.3291 82.9316 24.0151L83.3363 23.1007ZM87.2497 23.0579H83.134V24.0579H87.2497V23.0579ZM86.7497 17.672V23.5579H87.7497V17.672H86.7497Z" fill="#BC6726"/>
<path d="M61.5855 48.7629V55.2867H53.672V59.4843H61.0187V65.924H53.672V70.1416H61.5629V76.672H47.2323V48.7629H61.5855Z" fill="#BC6726" stroke="#BC6726"/>
<circle cx="77.8597" cy="81.1165" r="4.47928" fill="#BC6726"/>
<path d="M74.9788 54.2149L72.986 48.3081C59.5043 53.7915 62.3024 74.5122 76.4258 76.2845C90.5491 78.0568 99.0676 62.4546 88.7664 51.4352L84.4072 55.8845C89.3124 63.2361 85.717 70.0432 78.3008 69.6811C70.8847 69.319 67.0244 59.7803 74.9788 54.2149Z" fill="#BC6726" stroke="#BC6726"/>
<path d="M103.45 11.5332H96.9642L97.0196 39.8203H103.633L109.324 25.5413L109.41 39.8203H116.035V11.5332H109.089L103.45 25.2795V11.5332Z" fill="#F4992C" stroke="#F4992C"/>
<path d="M103.534 2.21403L97.9066 2.73441C99.8718 12.7564 115.107 11.0458 113.548 1L108.086 1.52036C108.201 4.77348 104.518 5.12438 103.534 2.21403Z" fill="#BC6726" stroke="#BC6726"/>
<path d="M15.8168 11.353H1.24613L1 39.7948H7.86899V18.3309H15.8168V11.353Z" fill="#F4992C" stroke="#F4992C"/>
<circle cx="78.036" cy="80.9403" r="4.65568" fill="#BC6726"/>
<path d="M74.9788 54.2149L72.986 48.3081C59.5043 53.7915 62.3024 74.5122 76.4258 76.2845C90.5491 78.0568 99.0676 62.4546 88.7664 51.4352L84.4072 55.8845C89.3124 63.2361 85.717 70.0432 78.3008 69.6811C70.8847 69.319 67.0244 59.7803 74.9788 54.2149Z" fill="#F4992C" stroke="#F4992C"/>
<path fill-rule="evenodd" clip-rule="evenodd" d="M77.7224 26.9611C78.3992 27.5783 79.1826 28.1434 80.0696 28.6392L72.4906 39.7977H80.397L86.9773 30.1968V43.2672H93.2755L93.4109 11.4377H85.5953C85.836 13.555 85.4793 15.6432 84.668 17.672H87.2497V23.5579H83.134C82.567 23.307 82.1105 22.9836 81.7659 22.6141C80.604 24.1208 79.2327 25.5748 77.7224 26.9611Z" fill="#F4992C"/>
<path d="M77.7224 26.9611L77.3843 26.5927L76.9816 26.9623L77.3855 27.3306L77.7224 26.9611ZM80.0696 28.6392L80.4832 28.9201L80.7897 28.4689L80.3136 28.2027L80.0696 28.6392ZM72.4906 39.7977L72.077 39.5168L71.5466 40.2977H72.4906V39.7977ZM80.397 39.7977V40.2977H80.6605L80.8094 40.0804L80.397 39.7977ZM86.9773 30.1968H87.4773V28.5829L86.5649 29.9141L86.9773 30.1968ZM86.9773 43.2672H86.4773V43.7672H86.9773V43.2672ZM93.2755 43.2672V43.7672H93.7733L93.7755 43.2693L93.2755 43.2672ZM93.4109 11.4377L93.9109 11.4399L93.913 10.9377H93.4109V11.4377ZM85.5953 11.4377V10.9377H85.0353L85.0985 11.4942L85.5953 11.4377ZM84.668 17.672L84.2037 17.4864L83.9295 18.172H84.668V17.672ZM87.2497 17.672H87.7497V17.172H87.2497V17.672ZM87.2497 23.5579V24.0579H87.7497V23.5579H87.2497ZM83.134 23.5579L82.9316 24.0151L83.0283 24.0579H83.134V23.5579ZM81.7659 22.6141L82.1316 22.2731L81.7298 21.8421L81.3699 22.3087L81.7659 22.6141ZM77.3855 27.3306C78.092 27.9748 78.9068 28.5621 79.8257 29.0756L80.3136 28.2027C79.4583 27.7247 78.7065 27.1818 78.0593 26.5916L77.3855 27.3306ZM79.656 28.3583L72.077 39.5168L72.9042 40.0787L80.4832 28.9201L79.656 28.3583ZM72.4906 40.2977H80.397V39.2977H72.4906V40.2977ZM80.8094 40.0804L87.3897 30.4795L86.5649 29.9141L79.9846 39.5151L80.8094 40.0804ZM86.4773 30.1968V43.2672H87.4773V30.1968H86.4773ZM86.9773 43.7672H93.2755V42.7672H86.9773V43.7672ZM93.7755 43.2693L93.9109 11.4399L92.9109 11.4356L92.7755 43.2651L93.7755 43.2693ZM93.4109 10.9377H85.5953V11.9377H93.4109V10.9377ZM85.1322 17.8577C85.9691 15.765 86.3435 13.5934 86.0921 11.3813L85.0985 11.4942C85.3284 13.5165 84.9895 15.5214 84.2037 17.4864L85.1322 17.8577ZM87.2497 17.172H84.668V18.172H87.2497V17.172ZM87.7497 23.5579V17.672H86.7497V23.5579H87.7497ZM83.134 24.0579H87.2497V23.0579H83.134V24.0579ZM81.4002 22.955C81.796 23.3795 82.3103 23.7402 82.9316 24.0151L83.3363 23.1007C82.8238 22.8739 82.425 22.5877 82.1316 22.2731L81.4002 22.955ZM78.0605 27.3295C79.5875 25.9279 80.9792 24.453 82.1618 22.9194L81.3699 22.3087C80.2287 23.7886 78.878 25.2218 77.3843 26.5927L78.0605 27.3295Z" fill="#F4992C"/>
<path fill-rule="evenodd" clip-rule="evenodd" d="M60.1044 21.7955C58.3167 23.0533 56.2238 24.0313 53.6474 24.8497V11.3438H67.9446C66.4214 14.5691 64.9286 17.0728 63.1569 19.0635V18.3761H60.1099C60.1099 18.3761 60.1072 19.7796 60.1044 21.7955ZM63.1569 36.7588V39.7411H69.985L70.0489 32.8044C67.754 34.2852 65.4059 35.6142 63.1569 36.7588Z" fill="#F4992C"/>
<path d="M60.1044 21.7955L60.3921 22.2044L60.6041 22.0553L60.6044 21.7962L60.1044 21.7955ZM53.6474 24.8497H53.1474V25.5332L53.7988 25.3262L53.6474 24.8497ZM53.6474 11.3438V10.8438H53.1474V11.3438H53.6474ZM67.9446 11.3438L68.3967 11.5573L68.7337 10.8438H67.9446V11.3438ZM63.1569 19.0635H62.6569V20.3774L63.5304 19.3959L63.1569 19.0635ZM63.1569 18.3761H63.6569V17.8761H63.1569V18.3761ZM60.1099 18.3761V17.8761H59.6108L59.6099 18.3751L60.1099 18.3761ZM63.1569 36.7588L62.9301 36.3132L62.6569 36.4522V36.7588H63.1569ZM63.1569 39.7411H62.6569V40.2411H63.1569V39.7411ZM69.985 39.7411V40.2411H70.4804L70.485 39.7457L69.985 39.7411ZM70.0489 32.8044L70.5489 32.809L70.5574 31.8812L69.7778 32.3842L70.0489 32.8044ZM59.8167 21.3866C58.0809 22.6079 56.0372 23.5659 53.496 24.3732L53.7988 25.3262C56.4103 24.4966 58.5525 23.4987 60.3921 22.2044L59.8167 21.3866ZM53.1474 11.3438V24.8497H54.1474V11.3438H53.1474ZM67.9446 10.8438H53.6474V11.8438H67.9446V10.8438ZM67.4925 11.1302C65.979 14.3351 64.5101 16.7909 62.7834 18.7311L63.5304 19.3959C65.347 17.3547 66.8638 14.8031 68.3967 11.5573L67.4925 11.1302ZM62.6569 18.3761V19.0635H63.6569V18.3761H62.6569ZM60.1099 18.8761H63.1569V17.8761H60.1099V18.8761ZM60.6044 21.7962C60.6058 20.7883 60.6072 19.9335 60.6082 19.3306C60.6087 19.0292 60.6091 18.7908 60.6094 18.6278C60.6096 18.5462 60.6097 18.4835 60.6098 18.4412C60.6098 18.4201 60.6098 18.404 60.6099 18.3933C60.6099 18.3879 60.6099 18.3838 60.6099 18.3811C60.6099 18.3797 60.6099 18.3787 60.6099 18.378C60.6099 18.3777 60.6099 18.3774 60.6099 18.3773C60.6099 18.3772 60.6099 18.3771 60.6099 18.3771C60.6099 18.3771 60.6099 18.377 60.6099 18.377C60.6099 18.377 60.6099 18.377 60.1099 18.3761C59.6099 18.3751 59.6099 18.3751 59.6099 18.3751C59.6099 18.3751 59.6099 18.3752 59.6099 18.3752C59.6099 18.3752 59.6099 18.3753 59.6099 18.3754C59.6099 18.3755 59.6099 18.3758 59.6099 18.3761C59.6099 18.3768 59.6099 18.3779 59.6099 18.3792C59.6099 18.3819 59.6099 18.386 59.6099 18.3914C59.6098 18.4022 59.6098 18.4182 59.6098 18.4394C59.6097 18.4817 59.6096 18.5444 59.6094 18.626C59.6091 18.7891 59.6087 19.0275 59.6082 19.329C59.6072 19.9319 59.6058 20.7868 59.6044 21.7948L60.6044 21.7962ZM62.6569 36.7588V39.7411H63.6569V36.7588H62.6569ZM63.1569 40.2411H69.985V39.2411H63.1569V40.2411ZM70.485 39.7457L70.5489 32.809L69.5489 32.7998L69.485 39.7365L70.485 39.7457ZM63.3837 37.2044C65.6464 36.0528 68.0094 34.7155 70.32 33.2245L69.7778 32.3842C67.4986 33.855 65.1654 35.1755 62.9301 36.3132L63.3837 37.2044Z" fill="#F4992C"/>
<path fill-rule="evenodd" clip-rule="evenodd" d="M61.5854 55.2867V48.7629H47.2322V59.1811C49.7632 61.3658 51.8361 64.006 53.6719 67.1955V65.924H61.0186V59.4843H53.6719V55.2867H61.5854ZM55.2293 70.1416C56.1981 72.1288 57.112 74.2999 58.0106 76.672H61.5628V70.1416H55.2293Z" fill="#F4992C"/>
<path d="M61.5854 48.7629H62.0854V48.2629H61.5854V48.7629ZM61.5854 55.2867V55.7867H62.0854V55.2867H61.5854ZM47.2322 48.7629V48.2629H46.7322V48.7629H47.2322ZM47.2322 59.1811H46.7322V59.4101L46.9055 59.5596L47.2322 59.1811ZM53.6719 67.1955L53.2386 67.445L54.1719 69.0666V67.1955H53.6719ZM53.6719 65.924V65.424H53.1719V65.924H53.6719ZM61.0186 65.924V66.424H61.5186V65.924H61.0186ZM61.0186 59.4843H61.5186V58.9843H61.0186V59.4843ZM53.6719 59.4843H53.1719V59.9843H53.6719V59.4843ZM53.6719 55.2867V54.7867H53.1719V55.2867H53.6719ZM58.0106 76.672L57.543 76.8491L57.6653 77.172H58.0106V76.672ZM55.2293 70.1416V69.6416H54.4293L54.7799 70.3607L55.2293 70.1416ZM61.5628 76.672V77.172H62.0628V76.672H61.5628ZM61.5628 70.1416H62.0628V69.6416H61.5628V70.1416ZM61.0854 48.7629V55.2867H62.0854V48.7629H61.0854ZM47.2322 49.2629H61.5854V48.2629H47.2322V49.2629ZM47.7322 59.1811V48.7629H46.7322V59.1811H47.7322ZM54.1053 66.9461C52.2472 63.7179 50.1404 61.031 47.559 58.8026L46.9055 59.5596C49.3859 61.7007 51.425 64.294 53.2386 67.445L54.1053 66.9461ZM53.1719 65.924V67.1955H54.1719V65.924H53.1719ZM61.0186 65.424H53.6719V66.424H61.0186V65.424ZM60.5186 59.4843V65.924H61.5186V59.4843H60.5186ZM53.6719 59.9843H61.0186V58.9843H53.6719V59.9843ZM53.1719 55.2867V59.4843H54.1719V55.2867H53.1719ZM61.5854 54.7867H53.6719V55.7867H61.5854V54.7867ZM58.4781 76.4948C57.5757 74.1127 56.656 71.9269 55.6788 69.9224L54.7799 70.3607C55.7403 72.3306 56.6482 74.4871 57.543 76.8491L58.4781 76.4948ZM61.5628 76.172H58.0106V77.172H61.5628V76.172ZM61.0628 70.1416V76.672H62.0628V70.1416H61.0628ZM55.2293 70.6416H61.5628V69.6416H55.2293V70.6416Z" fill="#F4992C"/>
<path fill-rule="evenodd" clip-rule="evenodd" d="M17.3189 11.3567H25.8955L35.8601 23.7221L43.512 11.4137L51.1763 11.4137L29.4719 48.1757H43.39V56.1228C39.3973 53.9091 34.3877 52.3995 27.8061 51.2582C27.4307 51.6165 26.9121 52.1608 26.4208 52.6764C25.83 53.2965 25.2786 53.8751 25.0637 54.0388V53.8576C17.751 56.3051 12.7963 53.6785 11.6323 45.4406H18.4375C18.8255 49.082 21.87 48.8432 23.2728 45.4406L32.048 30.4571L17.3189 11.3567ZM25.0637 61.443V76.7372H31.9883V66.5653C30.2823 63.4344 28.0561 62.1668 25.0637 61.443Z" fill="#F4992C"/>
<path d="M25.8955 11.3567L26.2848 11.043L26.1347 10.8567H25.8955V11.3567ZM17.3189 11.3567V10.8567H16.3019L16.9229 11.662L17.3189 11.3567ZM35.8601 23.7221L35.4707 24.0358L35.9128 24.5844L36.2847 23.9861L35.8601 23.7221ZM43.512 11.4137L43.512 10.9137L43.2341 10.9137L43.0874 11.1497L43.512 11.4137ZM51.1763 11.4137L51.6068 11.6679L52.0521 10.9137L51.1763 10.9137L51.1763 11.4137ZM29.4719 48.1757L29.0414 47.9215L28.5961 48.6757H29.4719V48.1757ZM43.39 48.1757H43.89V47.6757H43.39V48.1757ZM43.39 56.1228L43.1476 56.5601L43.89 56.9718V56.1228H43.39ZM27.8061 51.2582L27.8915 50.7656L27.6432 50.7225L27.4608 50.8966L27.8061 51.2582ZM26.4208 52.6764L26.7828 53.0214H26.7828L26.4208 52.6764ZM25.0637 54.0388H24.5637V55.0477L25.3665 54.4366L25.0637 54.0388ZM25.0637 53.8576H25.5637V53.163L24.905 53.3835L25.0637 53.8576ZM11.6323 45.4406V44.9406H11.0566L11.1372 45.5106L11.6323 45.4406ZM18.4375 45.4406L18.9347 45.3876L18.8871 44.9406H18.4375V45.4406ZM23.2728 45.4406L22.8414 45.1879L22.8238 45.2179L22.8106 45.25L23.2728 45.4406ZM32.048 30.4571L32.4794 30.7098L32.6499 30.4188L32.4439 30.1518L32.048 30.4571ZM25.0637 61.443L25.1812 60.957L24.5637 60.8076V61.443H25.0637ZM25.0637 76.7372H24.5637V77.2372H25.0637V76.7372ZM31.9883 76.7372V77.2372H32.4883V76.7372H31.9883ZM31.9883 66.5653H32.4883V66.438L32.4273 66.3261L31.9883 66.5653ZM25.8955 10.8567H17.3189V11.8567H25.8955V10.8567ZM36.2494 23.4084L26.2848 11.043L25.5062 11.6704L35.4707 24.0358L36.2494 23.4084ZM43.0874 11.1497L35.4354 23.4581L36.2847 23.9861L43.9367 11.6776L43.0874 11.1497ZM51.1763 10.9137L43.512 10.9137L43.512 11.9137L51.1763 11.9137L51.1763 10.9137ZM29.9025 48.4299L51.6068 11.6679L50.7457 11.1595L29.0414 47.9215L29.9025 48.4299ZM43.39 47.6757H29.4719V48.6757H43.39V47.6757ZM43.89 56.1228V48.1757H42.89V56.1228H43.89ZM43.6325 55.6856C39.5706 53.4335 34.4994 51.9114 27.8915 50.7656L27.7206 51.7509C34.276 52.8876 39.224 54.3848 43.1476 56.5601L43.6325 55.6856ZM27.4608 50.8966C27.0749 51.265 26.5467 51.8195 26.0588 52.3315L26.7828 53.0214C27.2775 52.5022 27.7866 51.9681 28.1513 51.6199L27.4608 50.8966ZM26.0588 52.3315C25.7625 52.6425 25.48 52.939 25.2448 53.1782C24.9993 53.4279 24.8341 53.5852 24.7608 53.6409L25.3665 54.4366C25.5082 54.3288 25.7262 54.1149 25.9578 53.8793C26.1997 53.6333 26.4882 53.3305 26.7828 53.0214L26.0588 52.3315ZM24.5637 53.8576V54.0388H25.5637V53.8576H24.5637ZM11.1372 45.5106C11.7305 49.7091 13.3071 52.5965 15.7848 54.0848C18.2588 55.5707 21.4948 55.5793 25.2223 54.3317L24.905 53.3835C21.3198 54.5834 18.4223 54.5024 16.2997 53.2275C14.1809 51.9548 12.6981 49.41 12.1273 45.3706L11.1372 45.5106ZM18.4375 44.9406H11.6323V45.9406H18.4375V44.9406ZM22.8106 45.25C22.1402 46.8761 21.1534 47.5613 20.4595 47.5823C20.1313 47.5923 19.8146 47.4621 19.5444 47.1362C19.2646 46.7988 19.025 46.2354 18.9347 45.3876L17.9403 45.4936C18.044 46.4665 18.3305 47.2388 18.7745 47.7744C19.2281 48.3215 19.833 48.6018 20.4897 48.5819C21.7657 48.5432 23.0026 47.4078 23.7351 45.6312L22.8106 45.25ZM31.6165 30.2045L22.8414 45.1879L23.7043 45.6933L32.4794 30.7098L31.6165 30.2045ZM16.9229 11.662L31.652 30.7625L32.4439 30.1518L17.7148 11.0514L16.9229 11.662ZM24.5637 61.443V76.7372H25.5637V61.443H24.5637ZM25.0637 77.2372H31.9883V76.2372H25.0637V77.2372ZM32.4883 76.7372V66.5653H31.4883V76.7372H32.4883ZM24.9461 61.929C26.406 62.2821 27.6463 62.7602 28.7221 63.5114C29.7944 64.2602 30.7282 65.2978 31.5492 66.8046L32.4273 66.3261C31.5424 64.702 30.5101 63.5403 29.2946 62.6916C28.0827 61.8453 26.7137 61.3277 25.1812 60.957L24.9461 61.929Z" fill="#F4992C"/>
<path fill-rule="evenodd" clip-rule="evenodd" d="M97.0695 67.6743L97.0195 77.0147H103.633L107.613 67.0284C107.445 67.1251 107.278 67.2221 107.113 67.3182C104.576 68.7949 102.342 70.0957 97.0695 67.6743ZM109.345 66.1333L109.41 77.0147H116.035V65.315C113.034 64.9236 110.998 65.4033 109.345 66.1333ZM116.035 60.039V48.7275H109.089L108.614 49.8865C109.217 50.8681 109.787 51.8481 110.336 52.7932C112.275 56.1322 113.962 59.0364 116.035 60.039Z" fill="#F4992C"/>
<path d="M97.0695 67.6743L97.2782 67.22L96.5737 66.8964L96.5695 67.6716L97.0695 67.6743ZM97.0195 77.0147L96.5195 77.012L96.5168 77.5147H97.0195V77.0147ZM103.633 77.0147V77.5147H103.972L104.097 77.1998L103.633 77.0147ZM107.613 67.0284L108.078 67.2136L108.609 65.8816L107.365 66.5946L107.613 67.0284ZM107.113 67.3182L106.861 66.8861L106.861 66.8861L107.113 67.3182ZM109.345 66.1333L109.143 65.6759L108.843 65.8083L108.845 66.1363L109.345 66.1333ZM109.41 77.0147L108.91 77.0177L108.913 77.5147H109.41V77.0147ZM116.035 77.0147V77.5147H116.535V77.0147H116.035ZM116.035 65.315H116.535V64.8759L116.1 64.8192L116.035 65.315ZM116.035 60.039L115.818 60.4892L116.535 60.8362V60.039H116.035ZM116.035 48.7275H116.535V48.2275H116.035V48.7275ZM109.089 48.7275V48.2275H108.754L108.626 48.5378L109.089 48.7275ZM108.614 49.8865L108.151 49.6967L108.054 49.932L108.188 50.1485L108.614 49.8865ZM110.336 52.7932L109.903 53.0444L110.336 52.7932ZM96.5695 67.6716L96.5195 77.012L97.5195 77.0174L97.5695 67.677L96.5695 67.6716ZM97.0195 77.5147H103.633V76.5147H97.0195V77.5147ZM104.097 77.1998L108.078 67.2136L107.149 66.8433L103.168 76.8295L104.097 77.1998ZM107.365 66.5946C107.194 66.6923 107.026 66.7901 106.861 66.8861L107.364 67.7504C107.53 67.654 107.695 67.5579 107.862 67.4622L107.365 66.5946ZM106.861 66.8861C105.583 67.6301 104.472 68.2706 103.05 68.4625C101.639 68.653 99.8599 68.4057 97.2782 67.22L96.8608 68.1287C99.5512 69.3643 101.526 69.6773 103.184 69.4536C104.831 69.2312 106.106 68.483 107.364 67.7504L106.861 66.8861ZM108.845 66.1363L108.91 77.0177L109.91 77.0117L109.845 66.1303L108.845 66.1363ZM109.41 77.5147H116.035V76.5147H109.41V77.5147ZM116.535 77.0147V65.315H115.535V77.0147H116.535ZM116.1 64.8192C113.004 64.4156 110.877 64.9103 109.143 65.6759L109.547 66.5907C111.119 65.8964 113.063 65.4317 115.971 65.8108L116.1 64.8192ZM116.535 60.039V48.7275H115.535V60.039H116.535ZM116.035 48.2275H109.089V49.2275H116.035V48.2275ZM108.626 48.5378L108.151 49.6967L109.076 50.0763L109.552 48.9173L108.626 48.5378ZM108.188 50.1485C108.788 51.1238 109.354 52.0984 109.903 53.0444L110.768 52.5421C110.219 51.5977 109.647 50.6123 109.039 49.6245L108.188 50.1485ZM109.903 53.0444C110.869 54.7074 111.789 56.2926 112.731 57.5865C113.668 58.8747 114.668 59.9332 115.818 60.4892L116.253 59.5889C115.329 59.1422 114.449 58.2473 113.539 56.998C112.634 55.7543 111.741 54.218 110.768 52.5421L109.903 53.0444Z" fill="#F4992C"/>
<path fill-rule="evenodd" clip-rule="evenodd" d="M119.273 66.4947V77.0393H126.262V71.445C124.37 69.8455 122.054 68.1418 119.273 66.4947ZM131.801 62.6757L140.07 48.7946L132.436 48.7945L126.262 58.8788V48.7854H119.273V60.6589C120.164 60.783 121.133 60.9081 122.132 61.0373C125.655 61.4925 129.56 61.9972 131.801 62.6757Z" fill="#F4992C"/>
<path d="M119.273 66.4947L119.528 66.0645L118.773 65.6174V66.4947H119.273ZM119.273 77.0393H118.773V77.5393H119.273V77.0393ZM126.262 77.0393V77.5393H126.762V77.0393H126.262ZM126.262 71.445H126.762V71.2129L126.585 71.0631L126.262 71.445ZM131.801 62.6757L131.656 63.1542L132.03 63.2676L132.23 62.9316L131.801 62.6757ZM140.07 48.7946L140.5 49.0505L140.95 48.2946L140.07 48.2946L140.07 48.7946ZM132.436 48.7945L132.436 48.2945L132.156 48.2945L132.009 48.5335L132.436 48.7945ZM126.262 58.8788H125.762V60.6531L126.689 59.1398L126.262 58.8788ZM126.262 48.7854H126.762V48.2854H126.262V48.7854ZM119.273 48.7854V48.2854H118.773V48.7854H119.273ZM119.273 60.6589H118.773V61.0942L119.204 61.1542L119.273 60.6589ZM122.132 61.0373L122.196 60.5414H122.196L122.132 61.0373ZM118.773 66.4947V77.0393H119.773V66.4947H118.773ZM119.273 77.5393H126.262V76.5393H119.273V77.5393ZM126.762 77.0393V71.445H125.762V77.0393H126.762ZM126.585 71.0631C124.672 69.4468 122.334 67.7267 119.528 66.0645L119.018 66.9249C121.774 68.557 124.067 70.2442 125.939 71.8268L126.585 71.0631ZM132.23 62.9316L140.5 49.0505L139.641 48.5387L131.371 62.4198L132.23 62.9316ZM140.07 48.2946L132.436 48.2945L132.436 49.2945L140.07 49.2946L140.07 48.2946ZM132.009 48.5335L125.836 58.6177L126.689 59.1398L132.862 49.0556L132.009 48.5335ZM126.762 58.8788V48.7854H125.762V58.8788H126.762ZM126.262 48.2854H119.273V49.2854H126.262V48.2854ZM118.773 48.7854V60.6589H119.773V48.7854H118.773ZM119.204 61.1542C120.098 61.2786 121.069 61.4041 122.068 61.5332L122.196 60.5414C121.196 60.4122 120.23 60.2873 119.342 60.1637L119.204 61.1542ZM122.068 61.5332C125.611 61.9911 129.465 62.4908 131.656 63.1542L131.946 62.1972C129.655 61.5035 125.698 60.9939 122.196 60.5414L122.068 61.5332Z" fill="#F4992C"/>
</svg>
