<svg width="1433" height="962" viewBox="0 0 1433 962" fill="none" xmlns="http://www.w3.org/2000/svg">
<path d="M1377.2 431.214C1416.8 605.39 1431.91 683.028 1096.23 779.45C760.544 875.871 458.022 723.794 195.099 714.277C-67.8252 704.76 112.414 300.732 261.333 225.859C410.252 150.986 978.132 226.863 1042.2 265.585C1106.27 304.307 1337.59 257.038 1377.2 431.214Z" fill="#F4992C"/>
<path d="M265.792 719.399C292.489 717.566 337.072 707.779 339.854 704.647C337.085 685.153 356.946 670.353 376.961 678.367C396.975 686.38 395.592 709.859 386.804 713.954C403.339 722.251 409.016 745.52 385.769 756.782C361.692 764.762 346.746 741.116 346.746 741.116C332.073 740.026 308.216 749.078 290.029 751.835C271.842 754.592 279.328 751.305 267.512 769.079C255.697 786.853 226.407 786.958 220.633 766.083C216.782 755.823 220.505 749.127 223.113 743.706C203.655 736.8 210.814 710.359 219.567 705.378C228.661 698.947 253.947 695.138 265.792 719.399Z" fill="#EBEBEB"/>
<path d="M1034.69 146.76C1102.63 195.056 1228.87 260.751 1241.53 259.245C1271.84 210.48 1347.89 216.536 1381.02 273.612C1414.14 330.688 1366.24 380.171 1337.24 372.036C1361.42 422.914 1330.97 485.778 1253.46 465.213C1180.17 435.722 1188.96 353.839 1188.96 353.839C1155.59 322.633 1080.8 295.957 1031.65 266.41C982.499 236.863 1006.81 244.24 944.548 260.575C882.282 276.91 811.352 219.69 837.028 161.956C847.201 131.592 868.9 124.012 885.487 117.077C851.607 63.5529 919.079 18.8171 949.67 24.9148C983.837 28.4569 1052.13 69.5914 1034.69 146.76Z" fill="#EBEBEB"/>
</svg>
