<svg width="360" height="671" viewBox="0 0 360 671" fill="none" xmlns="http://www.w3.org/2000/svg">
<path d="M354.657 230.106C355.383 271.203 333.785 311.648 354.366 463.897C374.946 616.145 299 648.42 266 659.5C233 670.58 177.5 678 86 655.337C-5.49996 632.674 55.929 599.884 28.0456 569.751C-21.3111 516.414 16.1508 227.003 21.9969 171.346C27.8429 115.689 37.257 21.2625 89.8777 33.8846C142.498 46.5067 267.353 106.341 281.09 128.833C294.828 151.325 353.233 149.599 354.657 230.106Z" fill="#F4992C"/>
<path d="M35.2751 597.749C46.5908 603.788 67.2064 611.097 69.1368 610.513C72.9926 601.766 84.8438 600.715 90.9288 609.115C97.0137 617.516 90.4528 626.85 85.8358 626.303C90.4342 633.934 86.7959 644.979 74.4726 643.709C62.651 640.873 62.6194 627.313 62.6194 627.313C56.9361 623.129 44.9298 620.791 36.8356 617.3C28.7413 613.808 32.6228 614.357 23.2807 618.683C13.9387 623.008 2.01084 615.597 4.99821 605.515C6.05474 600.302 9.27834 598.487 11.7232 596.915C5.58147 589.112 15.2461 580.026 20.0752 580.199C25.4136 579.86 36.6606 584.725 35.2751 597.749Z" fill="#EBEBEB"/>
<path d="M261.1 29.8297C279.773 38.1628 313.268 47.7957 316.224 46.7917C321.054 33.3972 339.565 31.042 350.336 43.2654C361.108 55.4887 352.102 69.9435 344.755 69.4233C353.078 80.5886 348.916 97.4214 329.333 96.3192C310.318 92.8316 308.346 72.4607 308.346 72.4607C298.804 66.5457 279.569 63.8191 266.33 59.1028C253.091 54.3864 259.28 54.9575 245.185 62.0682C231.09 69.1789 211.259 58.8239 214.532 43.48C215.456 35.578 220.275 32.6406 223.901 30.1177C213.124 18.7969 227.052 4.51207 234.68 4.4559C243.037 3.59766 261.435 10.1706 261.1 29.8297Z" fill="#EBEBEB"/>
</svg>
