<svg width="266" height="22" viewBox="0 0 266 22" fill="none" xmlns="http://www.w3.org/2000/svg">
<g clip-path="url(#clip0_207_9)">
<path d="M6.03785 5.00073C2.70843 5.00073 -0.000366211 7.69238 -0.000366211 11.0007C-0.000366211 14.3091 2.70843 17.0007 6.03785 17.0007C9.36727 17.0007 12.0761 14.3091 12.0761 11.0007C12.0761 7.69238 9.36727 5.00073 6.03785 5.00073ZM4.97055 12.0613C5.54106 12.6282 6.53465 12.6282 7.10515 12.0613L8.17245 13.1218C7.60231 13.6887 6.84422 14.0007 6.03785 14.0007C5.23148 14.0007 4.47339 13.6887 3.90325 13.1218C3.33275 12.5553 3.01874 11.802 3.01874 11.0007C3.01874 10.1995 3.33274 9.44617 3.90325 8.87964C5.04352 7.74585 7.03219 7.74585 8.17246 8.87964L7.10516 9.94019C6.53465 9.37329 5.54106 9.37329 4.97056 9.94019C4.68531 10.2236 4.52831 10.6001 4.52831 11.0007C4.52831 11.4014 4.68531 11.7778 4.97056 12.0613H4.97055Z" fill="white" fill-opacity="0.5"/>
</g>
<path d="M21.928 16.0847C20.9574 16.0847 20.08 15.8701 19.296 15.4407C18.5214 15.0114 17.91 14.4187 17.462 13.6627C17.0234 12.8974 16.804 12.0434 16.804 11.1007C16.804 10.1581 17.0234 9.30873 17.462 8.55273C17.91 7.7874 18.526 7.19007 19.31 6.76073C20.0941 6.3314 20.9714 6.11673 21.9421 6.11673C22.6701 6.11673 23.342 6.23807 23.9581 6.48073C24.574 6.7234 25.0967 7.07807 25.526 7.54473L24.8681 8.20273C24.1027 7.42807 23.1367 7.04073 21.9701 7.04073C21.1954 7.04073 20.4907 7.21807 19.856 7.57273C19.2214 7.9274 18.722 8.41273 18.358 9.02873C18.0034 9.64473 17.826 10.3354 17.826 11.1007C17.826 11.8661 18.0034 12.5567 18.358 13.1727C18.722 13.7887 19.2214 14.2741 19.856 14.6287C20.4907 14.9834 21.1954 15.1607 21.9701 15.1607C23.1461 15.1607 24.1121 14.7687 24.8681 13.9847L25.526 14.6427C25.0967 15.1094 24.5694 15.4687 23.9441 15.7207C23.3281 15.9634 22.6561 16.0847 21.928 16.0847ZM30.2064 16.0707C29.4971 16.0707 28.8578 15.9121 28.2884 15.5947C27.7191 15.2681 27.2711 14.8201 26.9444 14.2507C26.6178 13.6814 26.4544 13.0374 26.4544 12.3187C26.4544 11.6001 26.6178 10.9561 26.9444 10.3867C27.2711 9.8174 27.7191 9.37407 28.2884 9.05673C28.8578 8.7394 29.4971 8.58073 30.2064 8.58073C30.9158 8.58073 31.5551 8.7394 32.1244 9.05673C32.6938 9.37407 33.1371 9.8174 33.4544 10.3867C33.7811 10.9561 33.9444 11.6001 33.9444 12.3187C33.9444 13.0374 33.7811 13.6814 33.4544 14.2507C33.1371 14.8201 32.6938 15.2681 32.1244 15.5947C31.5551 15.9121 30.9158 16.0707 30.2064 16.0707ZM30.2064 15.1887C30.7291 15.1887 31.1958 15.0721 31.6064 14.8387C32.0264 14.5961 32.3531 14.2554 32.5864 13.8167C32.8198 13.3781 32.9364 12.8787 32.9364 12.3187C32.9364 11.7587 32.8198 11.2594 32.5864 10.8207C32.3531 10.3821 32.0264 10.0461 31.6064 9.81273C31.1958 9.57007 30.7291 9.44873 30.2064 9.44873C29.6838 9.44873 29.2124 9.57007 28.7924 9.81273C28.3818 10.0461 28.0551 10.3821 27.8124 10.8207C27.5791 11.2594 27.4624 11.7587 27.4624 12.3187C27.4624 12.8787 27.5791 13.3781 27.8124 13.8167C28.0551 14.2554 28.3818 14.5961 28.7924 14.8387C29.2124 15.0721 29.6838 15.1887 30.2064 15.1887ZM39.7678 8.58073C40.4584 8.58073 41.0838 8.7394 41.6438 9.05673C42.2038 9.36473 42.6424 9.8034 42.9598 10.3727C43.2771 10.9421 43.4358 11.5907 43.4358 12.3187C43.4358 13.0561 43.2771 13.7094 42.9598 14.2787C42.6424 14.8481 42.2038 15.2914 41.6438 15.6087C41.0931 15.9167 40.4678 16.0707 39.7678 16.0707C39.1704 16.0707 38.6291 15.9494 38.1438 15.7067C37.6678 15.4547 37.2758 15.0907 36.9678 14.6147V18.7167H35.9738V8.63673H36.9258V10.0927C37.2244 9.6074 37.6164 9.23407 38.1018 8.97273C38.5964 8.7114 39.1518 8.58073 39.7678 8.58073ZM39.6978 15.1887C40.2111 15.1887 40.6778 15.0721 41.0978 14.8387C41.5178 14.5961 41.8444 14.2554 42.0778 13.8167C42.3204 13.3781 42.4418 12.8787 42.4418 12.3187C42.4418 11.7587 42.3204 11.2641 42.0778 10.8347C41.8444 10.3961 41.5178 10.0554 41.0978 9.81273C40.6778 9.57007 40.2111 9.44873 39.6978 9.44873C39.1751 9.44873 38.7038 9.57007 38.2838 9.81273C37.8731 10.0554 37.5464 10.3961 37.3038 10.8347C37.0704 11.2641 36.9538 11.7587 36.9538 12.3187C36.9538 12.8787 37.0704 13.3781 37.3038 13.8167C37.5464 14.2554 37.8731 14.5961 38.2838 14.8387C38.7038 15.0721 39.1751 15.1887 39.6978 15.1887ZM51.445 8.63673L47.763 16.8827C47.4643 17.5734 47.119 18.0634 46.727 18.3527C46.335 18.6421 45.8636 18.7867 45.313 18.7867C44.9583 18.7867 44.627 18.7307 44.319 18.6187C44.011 18.5067 43.745 18.3387 43.521 18.1147L43.983 17.3727C44.3563 17.7461 44.8043 17.9327 45.327 17.9327C45.663 17.9327 45.9476 17.8394 46.181 17.6527C46.4236 17.4661 46.6476 17.1487 46.853 16.7007L47.175 15.9867L43.885 8.63673H44.921L47.693 14.8947L50.465 8.63673H51.445ZM53.7969 10.0787C54.0302 9.58407 54.3755 9.21073 54.8329 8.95873C55.2995 8.70673 55.8735 8.58073 56.5549 8.58073V9.54673L56.3169 9.53273C55.5422 9.53273 54.9355 9.77073 54.4969 10.2467C54.0582 10.7227 53.8389 11.3901 53.8389 12.2487V16.0007H52.8449V8.63673H53.7969V10.0787ZM58.3546 8.63673H59.3486V16.0007H58.3546V8.63673ZM58.8586 7.02673C58.6533 7.02673 58.4806 6.95673 58.3406 6.81673C58.2006 6.67673 58.1306 6.50873 58.1306 6.31273C58.1306 6.12607 58.2006 5.96273 58.3406 5.82273C58.4806 5.68273 58.6533 5.61273 58.8586 5.61273C59.064 5.61273 59.2366 5.68273 59.3766 5.82273C59.5166 5.9534 59.5866 6.11207 59.5866 6.29873C59.5866 6.50407 59.5166 6.67673 59.3766 6.81673C59.2366 6.95673 59.064 7.02673 58.8586 7.02673ZM68.9324 8.63673V15.1047C68.9324 16.3554 68.6244 17.2794 68.0084 17.8767C67.4017 18.4834 66.4824 18.7867 65.2504 18.7867C64.5691 18.7867 63.9204 18.6841 63.3044 18.4787C62.6977 18.2827 62.2031 18.0074 61.8204 17.6527L62.3244 16.8967C62.6791 17.2141 63.1084 17.4614 63.6124 17.6387C64.1257 17.8161 64.6624 17.9047 65.2224 17.9047C66.1557 17.9047 66.8417 17.6854 67.2804 17.2467C67.7191 16.8174 67.9384 16.1454 67.9384 15.2307V14.2927C67.6304 14.7594 67.2244 15.1141 66.7204 15.3567C66.2257 15.5994 65.6751 15.7207 65.0684 15.7207C64.3777 15.7207 63.7477 15.5714 63.1784 15.2727C62.6184 14.9647 62.1751 14.5401 61.8484 13.9987C61.5311 13.4481 61.3724 12.8274 61.3724 12.1367C61.3724 11.4461 61.5311 10.8301 61.8484 10.2887C62.1751 9.7474 62.6184 9.3274 63.1784 9.02873C63.7384 8.73007 64.3684 8.58073 65.0684 8.58073C65.6937 8.58073 66.2584 8.70673 66.7624 8.95873C67.2664 9.21073 67.6724 9.57473 67.9804 10.0507V8.63673H68.9324ZM65.1664 14.8387C65.6984 14.8387 66.1791 14.7267 66.6084 14.5027C67.0377 14.2694 67.3691 13.9474 67.6024 13.5367C67.8451 13.1261 67.9664 12.6594 67.9664 12.1367C67.9664 11.6141 67.8451 11.1521 67.6024 10.7507C67.3691 10.3401 67.0377 10.0227 66.6084 9.79873C66.1884 9.5654 65.7077 9.44873 65.1664 9.44873C64.6344 9.44873 64.1537 9.56073 63.7244 9.78473C63.3044 10.0087 62.9731 10.3261 62.7304 10.7367C62.4971 11.1474 62.3804 11.6141 62.3804 12.1367C62.3804 12.6594 62.4971 13.1261 62.7304 13.5367C62.9731 13.9474 63.3044 14.2694 63.7244 14.5027C64.1537 14.7267 64.6344 14.8387 65.1664 14.8387ZM75.464 8.58073C76.3881 8.58073 77.1207 8.8514 77.6621 9.39273C78.2127 9.92473 78.488 10.7041 78.488 11.7307V16.0007H77.4941V11.8287C77.4941 11.0634 77.3027 10.4801 76.9201 10.0787C76.5374 9.6774 75.9914 9.47673 75.282 9.47673C74.4887 9.47673 73.8587 9.71473 73.392 10.1907C72.9347 10.6574 72.706 11.3061 72.706 12.1367V16.0007H71.712V5.61273H72.706V9.92473C72.9767 9.4954 73.35 9.16407 73.826 8.93073C74.3021 8.6974 74.8481 8.58073 75.464 8.58073ZM85.0647 15.5527C84.878 15.7207 84.6447 15.8514 84.3647 15.9447C84.094 16.0287 83.8093 16.0707 83.5107 16.0707C82.82 16.0707 82.288 15.8841 81.9147 15.5107C81.5413 15.1374 81.3547 14.6101 81.3547 13.9287V9.47673H80.0387V8.63673H81.3547V7.02673H82.3487V8.63673H84.5887V9.47673H82.3487V13.8727C82.3487 14.3114 82.456 14.6474 82.6707 14.8807C82.8947 15.1047 83.212 15.2167 83.6227 15.2167C83.828 15.2167 84.024 15.1841 84.2107 15.1187C84.4067 15.0534 84.5747 14.9601 84.7147 14.8387L85.0647 15.5527ZM96.5722 15.1047V16.0007H89.6982V15.2867L93.7722 11.2967C94.2856 10.7927 94.6309 10.3587 94.8082 9.99473C94.9949 9.6214 95.0882 9.24807 95.0882 8.87473C95.0882 8.29607 94.8876 7.84807 94.4862 7.53073C94.0942 7.20407 93.5296 7.04073 92.7922 7.04073C91.6442 7.04073 90.7529 7.40473 90.1182 8.13273L89.4042 7.51673C89.7869 7.06873 90.2722 6.7234 90.8602 6.48073C91.4576 6.23807 92.1296 6.11673 92.8762 6.11673C93.8749 6.11673 94.6636 6.35473 95.2422 6.83073C95.8302 7.2974 96.1242 7.9414 96.1242 8.76273C96.1242 9.26673 96.0122 9.75207 95.7882 10.2187C95.5642 10.6854 95.1396 11.2221 94.5142 11.8287L91.1822 15.1047H96.5722ZM101.689 16.0847C100.933 16.0847 100.256 15.8841 99.6586 15.4827C99.0706 15.0814 98.6086 14.5074 98.2726 13.7607C97.9459 13.0047 97.7826 12.1181 97.7826 11.1007C97.7826 10.0834 97.9459 9.2014 98.2726 8.45473C98.6086 7.69873 99.0706 7.12007 99.6586 6.71873C100.256 6.3174 100.933 6.11673 101.689 6.11673C102.445 6.11673 103.117 6.3174 103.705 6.71873C104.302 7.12007 104.769 7.69873 105.105 8.45473C105.441 9.2014 105.609 10.0834 105.609 11.1007C105.609 12.1181 105.441 13.0047 105.105 13.7607C104.769 14.5074 104.302 15.0814 103.705 15.4827C103.117 15.8841 102.445 16.0847 101.689 16.0847ZM101.689 15.1607C102.258 15.1607 102.757 15.0021 103.187 14.6847C103.625 14.3674 103.966 13.9054 104.209 13.2987C104.451 12.6921 104.573 11.9594 104.573 11.1007C104.573 10.2421 104.451 9.5094 104.209 8.90273C103.966 8.29607 103.625 7.83407 103.187 7.51673C102.757 7.1994 102.258 7.04073 101.689 7.04073C101.119 7.04073 100.615 7.1994 100.177 7.51673C99.7472 7.83407 99.4112 8.29607 99.1686 8.90273C98.9259 9.5094 98.8046 10.2421 98.8046 11.1007C98.8046 11.9594 98.9259 12.6921 99.1686 13.2987C99.4112 13.9054 99.7472 14.3674 100.177 14.6847C100.615 15.0021 101.119 15.1607 101.689 15.1607ZM113.717 15.1047V16.0007H106.843V15.2867L110.917 11.2967C111.43 10.7927 111.775 10.3587 111.953 9.99473C112.139 9.6214 112.233 9.24807 112.233 8.87473C112.233 8.29607 112.032 7.84807 111.631 7.53073C111.239 7.20407 110.674 7.04073 109.937 7.04073C108.789 7.04073 107.897 7.40473 107.263 8.13273L106.549 7.51673C106.931 7.06873 107.417 6.7234 108.005 6.48073C108.602 6.23807 109.274 6.11673 110.021 6.11673C111.019 6.11673 111.808 6.35473 112.387 6.83073C112.975 7.2974 113.269 7.9414 113.269 8.76273C113.269 9.26673 113.157 9.75207 112.933 10.2187C112.709 10.6854 112.284 11.2221 111.659 11.8287L108.327 15.1047H113.717ZM117.698 6.20073V16.0007H116.69V7.09673H114.38V6.20073H117.698ZM120.152 11.7727H123.82V12.6407H120.152V11.7727ZM132.12 10.9467C132.801 11.0867 133.319 11.3621 133.674 11.7727C134.029 12.1741 134.206 12.7014 134.206 13.3547C134.206 14.2041 133.903 14.8574 133.296 15.3147C132.699 15.7721 131.817 16.0007 130.65 16.0007H126.31V6.20073H130.384C131.429 6.20073 132.246 6.4154 132.834 6.84473C133.422 7.27407 133.716 7.89473 133.716 8.70673C133.716 9.2574 133.576 9.72407 133.296 10.1067C133.016 10.4801 132.624 10.7601 132.12 10.9467ZM127.332 10.6387H130.328C131.084 10.6387 131.663 10.4847 132.064 10.1767C132.475 9.86873 132.68 9.42073 132.68 8.83273C132.68 8.24473 132.475 7.79673 132.064 7.48873C131.663 7.18073 131.084 7.02673 130.328 7.02673H127.332V10.6387ZM130.65 15.1747C132.339 15.1747 133.184 14.5447 133.184 13.2847C133.184 12.0527 132.339 11.4367 130.65 11.4367H127.332V15.1747H130.65ZM139.638 16.0707C138.91 16.0707 138.257 15.9121 137.678 15.5947C137.109 15.2774 136.661 14.8341 136.334 14.2647C136.008 13.6861 135.844 13.0374 135.844 12.3187C135.844 11.6001 136.008 10.9561 136.334 10.3867C136.661 9.8174 137.109 9.37407 137.678 9.05673C138.257 8.7394 138.91 8.58073 139.638 8.58073C140.273 8.58073 140.838 8.70673 141.332 8.95873C141.836 9.2014 142.233 9.56073 142.522 10.0367L141.78 10.5407C141.538 10.1767 141.23 9.90607 140.856 9.72873C140.483 9.54207 140.077 9.44873 139.638 9.44873C139.106 9.44873 138.626 9.57007 138.196 9.81273C137.776 10.0461 137.445 10.3821 137.202 10.8207C136.969 11.2594 136.852 11.7587 136.852 12.3187C136.852 12.8881 136.969 13.3921 137.202 13.8307C137.445 14.2601 137.776 14.5961 138.196 14.8387C138.626 15.0721 139.106 15.1887 139.638 15.1887C140.077 15.1887 140.483 15.1001 140.856 14.9227C141.23 14.7454 141.538 14.4747 141.78 14.1107L142.522 14.6147C142.233 15.0907 141.836 15.4547 141.332 15.7067C140.828 15.9494 140.264 16.0707 139.638 16.0707ZM144.447 8.63673H145.441V16.0007H144.447V8.63673ZM144.951 7.02673C144.746 7.02673 144.573 6.95673 144.433 6.81673C144.293 6.67673 144.223 6.50873 144.223 6.31273C144.223 6.12607 144.293 5.96273 144.433 5.82273C144.573 5.68273 144.746 5.61273 144.951 5.61273C145.156 5.61273 145.329 5.68273 145.469 5.82273C145.609 5.9534 145.679 6.11207 145.679 6.29873C145.679 6.50407 145.609 6.67673 145.469 6.81673C145.329 6.95673 145.156 7.02673 144.951 7.02673ZM158.547 8.63673V16.0007H157.553V9.51873H152.933V16.0007H151.939V8.63673H158.547ZM165.167 8.58073C165.858 8.58073 166.483 8.7394 167.043 9.05673C167.603 9.36473 168.042 9.8034 168.359 10.3727C168.676 10.9421 168.835 11.5907 168.835 12.3187C168.835 13.0561 168.676 13.7094 168.359 14.2787C168.042 14.8481 167.603 15.2914 167.043 15.6087C166.492 15.9167 165.867 16.0707 165.167 16.0707C164.57 16.0707 164.028 15.9494 163.543 15.7067C163.067 15.4547 162.675 15.0907 162.367 14.6147V18.7167H161.373V8.63673H162.325V10.0927C162.624 9.6074 163.016 9.23407 163.501 8.97273C163.996 8.7114 164.551 8.58073 165.167 8.58073ZM165.097 15.1887C165.61 15.1887 166.077 15.0721 166.497 14.8387C166.917 14.5961 167.244 14.2554 167.477 13.8167C167.72 13.3781 167.841 12.8787 167.841 12.3187C167.841 11.7587 167.72 11.2641 167.477 10.8347C167.244 10.3961 166.917 10.0554 166.497 9.81273C166.077 9.57007 165.61 9.44873 165.097 9.44873C164.574 9.44873 164.103 9.57007 163.683 9.81273C163.272 10.0554 162.946 10.3961 162.703 10.8347C162.47 11.2641 162.353 11.7587 162.353 12.3187C162.353 12.8787 162.47 13.3781 162.703 13.8167C162.946 14.2554 163.272 14.5961 163.683 14.8387C164.103 15.0721 164.574 15.1887 165.097 15.1887ZM173.464 8.58073C174.425 8.58073 175.162 8.8234 175.676 9.30873C176.189 9.78473 176.446 10.4941 176.446 11.4367V16.0007H175.494V14.8527C175.27 15.2354 174.938 15.5341 174.5 15.7487C174.07 15.9634 173.557 16.0707 172.96 16.0707C172.138 16.0707 171.485 15.8747 171 15.4827C170.514 15.0907 170.272 14.5727 170.272 13.9287C170.272 13.3034 170.496 12.7994 170.944 12.4167C171.401 12.0341 172.124 11.8427 173.114 11.8427H175.452V11.3947C175.452 10.7601 175.274 10.2794 174.92 9.95273C174.565 9.61673 174.047 9.44873 173.366 9.44873C172.899 9.44873 172.451 9.52807 172.022 9.68673C171.592 9.83607 171.224 10.0461 170.916 10.3167L170.468 9.57473C170.841 9.2574 171.289 9.01473 171.812 8.84673C172.334 8.6694 172.885 8.58073 173.464 8.58073ZM173.114 15.2867C173.674 15.2867 174.154 15.1607 174.556 14.9087C174.957 14.6474 175.256 14.2741 175.452 13.7887V12.5847H173.142C171.882 12.5847 171.252 13.0234 171.252 13.9007C171.252 14.3301 171.415 14.6707 171.742 14.9227C172.068 15.1654 172.526 15.2867 173.114 15.2867ZM183.782 12.1927C184.78 12.4261 185.28 13.0281 185.28 13.9987C185.28 14.6427 185.042 15.1374 184.566 15.4827C184.09 15.8281 183.38 16.0007 182.438 16.0007H179.092V8.63673H182.34C183.18 8.63673 183.838 8.80007 184.314 9.12673C184.79 9.4534 185.028 9.92007 185.028 10.5267C185.028 10.9281 184.916 11.2734 184.692 11.5627C184.477 11.8427 184.174 12.0527 183.782 12.1927ZM180.058 11.9127H182.27C182.839 11.9127 183.273 11.8054 183.572 11.5907C183.88 11.3761 184.034 11.0634 184.034 10.6527C184.034 10.2421 183.88 9.93407 183.572 9.72873C183.273 9.5234 182.839 9.42073 182.27 9.42073H180.058V11.9127ZM182.396 15.2167C183.03 15.2167 183.506 15.1141 183.824 14.9087C184.141 14.7034 184.3 14.3814 184.3 13.9427C184.3 13.5041 184.155 13.1821 183.866 12.9767C183.576 12.7621 183.119 12.6547 182.494 12.6547H180.058V15.2167H182.396ZM190.143 8.58073C191.105 8.58073 191.842 8.8234 192.355 9.30873C192.869 9.78473 193.125 10.4941 193.125 11.4367V16.0007H192.173V14.8527C191.949 15.2354 191.618 15.5341 191.179 15.7487C190.75 15.9634 190.237 16.0707 189.639 16.0707C188.818 16.0707 188.165 15.8747 187.679 15.4827C187.194 15.0907 186.951 14.5727 186.951 13.9287C186.951 13.3034 187.175 12.7994 187.623 12.4167C188.081 12.0341 188.804 11.8427 189.793 11.8427H192.131V11.3947C192.131 10.7601 191.954 10.2794 191.599 9.95273C191.245 9.61673 190.727 9.44873 190.045 9.44873C189.579 9.44873 189.131 9.52807 188.701 9.68673C188.272 9.83607 187.903 10.0461 187.595 10.3167L187.147 9.57473C187.521 9.2574 187.969 9.01473 188.491 8.84673C189.014 8.6694 189.565 8.58073 190.143 8.58073ZM189.793 15.2867C190.353 15.2867 190.834 15.1607 191.235 14.9087C191.637 14.6474 191.935 14.2741 192.131 13.7887V12.5847H189.821C188.561 12.5847 187.931 13.0234 187.931 13.9007C187.931 14.3301 188.095 14.6707 188.421 14.9227C188.748 15.1654 189.205 15.2867 189.793 15.2867ZM203.019 12.1647C203.542 12.2861 203.943 12.4961 204.223 12.7947C204.513 13.0934 204.657 13.4574 204.657 13.8867C204.657 14.3161 204.508 14.6987 204.209 15.0347C203.92 15.3707 203.523 15.6321 203.019 15.8187C202.515 15.9961 201.96 16.0847 201.353 16.0847C200.821 16.0847 200.299 16.0101 199.785 15.8607C199.272 15.7021 198.824 15.4734 198.441 15.1747L198.777 14.4327C199.113 14.6847 199.505 14.8807 199.953 15.0207C200.401 15.1607 200.854 15.2307 201.311 15.2307C201.993 15.2307 202.548 15.1047 202.977 14.8527C203.416 14.5914 203.635 14.2414 203.635 13.8027C203.635 13.4107 203.458 13.1074 203.103 12.8927C202.749 12.6687 202.263 12.5567 201.647 12.5567H200.387V11.8287H201.591C202.142 11.8287 202.585 11.7261 202.921 11.5207C203.257 11.3061 203.425 11.0214 203.425 10.6667C203.425 10.2747 203.234 9.96673 202.851 9.74273C202.478 9.51873 201.988 9.40673 201.381 9.40673C200.588 9.40673 199.804 9.6074 199.029 10.0087L198.749 9.23873C199.627 8.7814 200.537 8.55273 201.479 8.55273C202.039 8.55273 202.543 8.63673 202.991 8.80473C203.449 8.9634 203.803 9.19207 204.055 9.49073C204.317 9.7894 204.447 10.1347 204.447 10.5267C204.447 10.9001 204.317 11.2314 204.055 11.5207C203.803 11.8101 203.458 12.0247 203.019 12.1647ZM209.448 8.58073C210.409 8.58073 211.147 8.8234 211.66 9.30873C212.173 9.78473 212.43 10.4941 212.43 11.4367V16.0007H211.478V14.8527C211.254 15.2354 210.923 15.5341 210.484 15.7487C210.055 15.9634 209.541 16.0707 208.944 16.0707C208.123 16.0707 207.469 15.8747 206.984 15.4827C206.499 15.0907 206.256 14.5727 206.256 13.9287C206.256 13.3034 206.48 12.7994 206.928 12.4167C207.385 12.0341 208.109 11.8427 209.098 11.8427H211.436V11.3947C211.436 10.7601 211.259 10.2794 210.904 9.95273C210.549 9.61673 210.031 9.44873 209.35 9.44873C208.883 9.44873 208.435 9.52807 208.006 9.68673C207.577 9.83607 207.208 10.0461 206.9 10.3167L206.452 9.57473C206.825 9.2574 207.273 9.01473 207.796 8.84673C208.319 8.6694 208.869 8.58073 209.448 8.58073ZM209.098 15.2867C209.658 15.2867 210.139 15.1607 210.54 14.9087C210.941 14.6474 211.24 14.2741 211.436 13.7887V12.5847H209.126C207.866 12.5847 207.236 13.0234 207.236 13.9007C207.236 14.3301 207.399 14.6707 207.726 14.9227C208.053 15.1654 208.51 15.2867 209.098 15.2867ZM219.682 16.0007L217.344 12.9207L214.992 16.0007H213.872L216.784 12.2207L214.012 8.63673H215.132L217.344 11.5207L219.556 8.63673H220.648L217.876 12.2207L220.816 16.0007H219.682ZM222.445 8.63673H223.439V14.4887L228.353 8.63673H229.235V16.0007H228.241V10.1487L223.341 16.0007H222.445V8.63673ZM242.248 8.63673V16.0007H232.084V8.63673H233.078V15.1327H236.69V8.63673H237.684V15.1327H241.254V8.63673H242.248ZM243.382 15.1327V17.6107H242.444V16.0007H241.198V15.1327H243.382ZM251.526 12.6267H245.366C245.422 13.3921 245.716 14.0127 246.248 14.4887C246.78 14.9554 247.452 15.1887 248.264 15.1887C248.721 15.1887 249.141 15.1094 249.524 14.9507C249.906 14.7827 250.238 14.5401 250.518 14.2227L251.078 14.8667C250.751 15.2587 250.34 15.5574 249.846 15.7627C249.36 15.9681 248.824 16.0707 248.236 16.0707C247.48 16.0707 246.808 15.9121 246.22 15.5947C245.641 15.2681 245.188 14.8201 244.862 14.2507C244.535 13.6814 244.372 13.0374 244.372 12.3187C244.372 11.6001 244.526 10.9561 244.834 10.3867C245.151 9.8174 245.58 9.37407 246.122 9.05673C246.672 8.7394 247.288 8.58073 247.97 8.58073C248.651 8.58073 249.262 8.7394 249.804 9.05673C250.345 9.37407 250.77 9.8174 251.078 10.3867C251.386 10.9467 251.54 11.5907 251.54 12.3187L251.526 12.6267ZM247.97 9.43473C247.26 9.43473 246.663 9.6634 246.178 10.1207C245.702 10.5687 245.431 11.1567 245.366 11.8847H250.588C250.522 11.1567 250.247 10.5687 249.762 10.1207C249.286 9.6634 248.688 9.43473 247.97 9.43473ZM253.74 8.63673H254.734V11.8987H259.368V8.63673H260.362V16.0007H259.368V12.7527H254.734V16.0007H253.74V8.63673ZM263.187 8.63673H264.181V16.0007H263.187V8.63673ZM263.691 7.02673C263.486 7.02673 263.313 6.95673 263.173 6.81673C263.033 6.67673 262.963 6.50873 262.963 6.31273C262.963 6.12607 263.033 5.96273 263.173 5.82273C263.313 5.68273 263.486 5.61273 263.691 5.61273C263.897 5.61273 264.069 5.68273 264.209 5.82273C264.349 5.9534 264.419 6.11207 264.419 6.29873C264.419 6.50407 264.349 6.67673 264.209 6.81673C264.069 6.95673 263.897 7.02673 263.691 7.02673Z" fill="white" fill-opacity="0.5"/>
<defs>
<clipPath id="clip0_207_9">
<rect width="12.0764" height="12" fill="white" transform="translate(-0.000366211 5.00073)"/>
</clipPath>
</defs>
</svg>
