<svg width="80" height="81" viewBox="0 0 80 81" fill="none" xmlns="http://www.w3.org/2000/svg">
<g clip-path="url(#clip0_121_301)">
<path d="M27.8472 0.565203C24.0135 0.235673 20.6383 3.07645 20.3088 6.91019C19.9769 10.7685 22.8507 14.1216 26.6538 14.4486C30.4725 14.7766 33.8616 11.9502 34.1922 8.10363C34.5217 4.26988 31.681 0.89489 27.8472 0.565203Z" fill="#2AA89B"/>
<path d="M69.0746 64.6146C67.732 65.2615 66.2684 65.6301 64.8203 65.7102C63.3756 65.7588 62.0859 65.5671 60.6347 64.7407C60.4965 64.0018 60.1886 63.2974 59.7236 62.6884L51.8573 52.3864C51.8573 52.3864 52.0155 51.2281 52.1869 49.9204C50.4944 50.1915 48.3359 50.2695 47.5748 48.7314C46.7931 47.1512 48.3234 45.4956 48.8266 44.9517C49.2372 44.5076 49.7933 43.9867 50.2872 43.5965L50.2547 43.577C49.6512 43.2167 48.9739 43.0367 48.2967 43.0367C47.5998 43.0367 46.9033 43.2273 46.2883 43.6076C44.3433 43.1676 44.4172 43.1731 44.237 43.1731C43.9938 43.1731 43.7542 43.2495 43.5538 43.3948C43.2827 43.5915 43.1095 43.8953 43.0786 44.2286L42.9403 45.7114C42.8277 46.9212 43.5209 48.0621 44.6466 48.5193C45.1313 48.7162 45.5125 49.1065 45.7002 49.5948C45.8878 50.0831 45.8658 50.6271 45.6384 51.0984C44.9386 52.5487 43.9758 54.6274 43.3033 56.4115C40.5522 54.1876 40.7253 54.3276 37.8986 52.0425C37.2235 51.4967 36.2338 51.6015 35.6878 52.2767C35.5546 52.4415 35.4606 52.6253 35.4039 52.8167L31.9821 45.2448C31.5114 45.034 22.1426 40.84 21.6743 40.6304C19.1104 39.4826 17.9637 36.8619 18.0649 35.3069L18.9037 22.4278L21.089 35.5039C21.2635 36.5478 21.9488 37.4331 22.9127 37.8648L34.4235 43.0179C35.9494 43.7014 37.7113 43.0684 38.4839 41.6489C39.3688 40.0236 38.6772 38.0053 37.003 37.2556L27.0369 32.7939L25.0579 20.9525L29.3305 30.5005C31.0374 31.2645 36.2672 33.6058 38.2411 34.4895C41.1445 35.7895 42.5561 39.0656 41.6036 42.0267C43.1338 40.2818 45.0584 40.9295 45.9956 41.1415C46.2147 41.0533 46.4389 40.9793 46.6664 40.917C46.4792 40.4293 46.1697 39.9809 45.7391 39.6236L35.4008 31.0453L33.2422 27.6573L33.6991 22.3427L33.7024 22.3038C33.9257 19.7058 31.9969 17.4331 29.4161 17.2114L21.0536 16.4925C18.4893 16.272 16.1855 18.1677 15.9613 20.7788C15.9005 21.4855 14.6544 35.9801 14.1249 42.1398C14.0199 43.3625 14.0621 44.6229 14.2526 45.8351C14.5894 47.9781 15.2144 51.9485 16.3854 59.4082L10.3487 75.4135C9.61023 77.371 10.5988 79.5563 12.5563 80.2946C14.514 81.0327 16.6991 80.0443 17.4374 78.0869L23.8271 61.1456C24.0586 60.5321 24.1266 59.869 24.0249 59.2213C23.83 57.9796 22.126 47.1264 21.8744 45.5242L23.8725 45.6959L29.9166 59.0699L34.1271 77.5901C34.5908 79.6297 36.6203 80.9077 38.6606 80.4441C40.7006 79.9802 41.9783 77.9505 41.5147 75.9105L37.2194 57.0182C37.1631 56.7707 37.0822 56.5295 36.9775 56.2982L36.2956 54.7893C43.8988 60.9356 48.3317 64.1885 51.0666 66.2399C51.4348 65.3531 51.9877 64.4993 52.7214 63.7452C53.0466 63.4112 53.5812 63.4037 53.9155 63.729C54.2497 64.0543 54.257 64.589 53.9317 64.9231C53.1461 65.7302 52.5641 66.7607 52.3097 67.8768C51.9391 69.5037 51.7234 72.2527 52.2489 74.0913L50.6867 78.409C50.3912 79.2254 50.8137 80.1268 51.6301 80.4219C52.4467 80.7176 53.3478 80.2948 53.6431 79.4785L55.3414 74.7848C56.8522 73.6827 58.5197 72.1696 59.5769 70.5388C60.1123 69.7129 60.547 68.5746 60.6231 67.7145C62.2409 68.0618 63.5701 68.0084 65.1081 67.6704C66.6701 67.2971 68.2784 66.5991 69.6592 65.5885C70.2164 65.1815 69.6957 64.3156 69.0746 64.6146Z" fill="#2AA89B"/>
<path d="M53.6546 45.7231C53.165 44.7338 52.2047 44.2106 51.6963 44.4624C51.1877 44.7141 48.4475 47.068 48.9371 48.0572C49.4266 49.0464 52.96 48.2966 53.4686 48.0449C53.9772 47.7933 54.1441 46.7124 53.6546 45.7231Z" fill="#2AA89B"/>
</g>
<defs>
<clipPath id="clip0_121_301">
<rect width="80" height="80" fill="white" transform="translate(0 0.539307)"/>
</clipPath>
</defs>
</svg>
