<svg width="80" height="81" viewBox="0 0 80 81" fill="none" xmlns="http://www.w3.org/2000/svg">
<path d="M40 65.4752V78.1939C40 79.4883 41.0494 80.5377 42.3438 80.5377H44.6875V66.1052C43.113 65.9446 41.5452 65.7319 40 65.4752Z" fill="#2AA89B"/>
<path d="M10.7378 29.0254C7.31062 26.9008 5.11108 23.246 4.85046 19.2062C4.76218 17.8376 2.9528 17.4148 2.26718 18.6023L2.26687 18.6027C-1.1372 24.4988 -0.28376 31.6748 3.86358 36.5963C5.44296 33.5162 7.81952 30.8963 10.7378 29.0254Z" fill="#2AA89B"/>
<path d="M57.1875 7.62103L52.5 7.10025C49.9111 7.10025 47.8125 9.19884 47.8125 11.7878V18.0378C47.8125 20.6267 49.9111 22.7253 52.5 22.7253C55.0889 22.7253 57.1875 20.6267 57.1875 18.0378V7.62103Z" fill="#2AA89B"/>
<path d="M40.515 29.0437L39.4241 28.2054C39.1528 28.2651 38.8786 28.316 38.5995 28.3509L19.4089 30.7498C11.9961 31.6762 6.40625 38.0084 6.40625 45.4787V55.4968L0.669844 62.6674C0.337344 63.0829 0.15625 63.5993 0.15625 64.1315V78.194C0.15625 79.4884 1.20562 80.5378 2.5 80.5378H9.53125C10.8256 80.5378 11.875 79.4884 11.875 78.194V69.1115C17.518 67.4068 21.7928 62.6312 22.7806 56.7043L23.0598 55.0287L27.5105 57.0517C33.2559 59.6632 41.6162 61.436 49.375 61.7409V80.5326C49.375 80.5354 49.3722 80.5378 49.375 80.5378H58.75C60.0444 80.5378 61.0938 79.4884 61.0938 78.194V56.2493C65.8877 53.7017 68.9062 48.7459 68.9062 43.2173V38.0553C67.7375 38.1631 66.568 38.2168 65.4027 38.2168C56.3373 38.2171 47.4742 34.9885 40.515 29.0437Z" fill="#2AA89B"/>
<path d="M77.8854 16.5071L69.9081 15.1776C68.5127 11.7179 65.5024 9.11073 61.8751 8.22464V18.0378C61.8751 23.2071 57.6695 27.4128 52.5001 27.4128C49.5984 27.4128 47.0006 26.0873 45.2796 24.0104C44.8913 24.6523 44.4251 25.2382 43.8987 25.7614C50.8577 31.5487 59.9101 34.291 68.9065 33.3429V30.5378H71.2502C75.9965 30.5378 79.844 26.6903 79.844 21.944V18.819C79.8438 17.6732 79.0156 16.6954 77.8854 16.5071Z" fill="#2AA89B"/>
<path d="M11.7405 1.02291C11.3309 0.708375 10.8289 0.53775 10.3125 0.53775H2.5C1.20562 0.53775 0.15625 1.58713 0.15625 2.8815C0.15625 4.17588 1.20562 5.22525 2.5 5.22525H9.51609L39.4241 28.2054C41.1387 27.8284 42.6842 26.9684 43.8986 25.7615C43.7712 25.6556 11.7405 1.02291 11.7405 1.02291Z" fill="#2AA89B"/>
</svg>
