<svg width="93" height="82" viewBox="0 0 93 82" fill="none" xmlns="http://www.w3.org/2000/svg">
<g clip-path="url(#clip0_123_73)">
<path d="M91.0553 25.4081C89.7062 10.3269 78.6315 2.53855 68.9163 1.688C56.9645 0.64045 50.6731 4.31147 45.5338 9.23217C40.3956 4.3084 34.0816 0.63532 22.1513 1.68492C12.431 2.5365 1.35842 10.3249 0.014364 25.4081L0 30.0435L0.011286 30.3544C1.38099 46.1322 15.6424 62.3779 43.6152 80.0251L45.5318 81.2378L47.4494 80.0251C75.4212 62.3789 89.6856 46.1291 91.0523 30.3554L91.0697 25.7271L91.0553 25.4081ZM48.5185 27.3862C49.5363 23.5818 52.5886 21.0958 55.3383 21.8304C58.088 22.5681 59.4874 26.2525 58.4717 30.0528C57.4518 33.8541 54.3995 36.3442 51.6498 35.6055C48.9001 34.8698 47.4986 31.1896 48.5185 27.3862ZM36.9308 21.8284C39.6774 21.0927 42.7298 23.5808 43.7506 27.3831C44.7705 31.1875 43.37 34.8678 40.6213 35.6034C37.8727 36.3421 34.8214 33.851 33.8005 30.0507C32.7807 26.2504 34.1822 22.566 36.9308 21.8284ZM24.9236 41.4362C23.1814 38.4177 23.5313 34.9488 25.7167 33.691C27.9 32.431 31.0806 33.8561 32.8217 36.8787C34.569 39.9003 34.214 43.3692 32.0317 44.6271C29.8494 45.8829 26.6657 44.4609 24.9236 41.4362ZM46.133 58.1846C38.004 58.1846 31.413 65.2107 31.413 55.7181C31.413 46.2235 40.8532 38.5306 46.133 38.5326C51.4128 38.5347 60.854 46.2235 60.854 55.7181C60.854 65.2096 54.2641 58.1846 46.133 58.1846ZM67.3414 41.4362C65.6003 44.4598 62.4197 45.8829 60.2333 44.6261C58.05 43.3682 57.696 39.8972 59.4443 36.8777C61.1854 33.8551 64.364 32.43 66.5504 33.6899C68.7368 34.9488 69.0846 38.4177 67.3414 41.4362Z" fill="#2AA89B"/>
</g>
<defs>
<clipPath id="clip0_123_73">
<rect width="92.17" height="80.7" fill="white" transform="translate(0 0.539307)"/>
</clipPath>
</defs>
</svg>
