<svg width="81" height="81" viewBox="0 0 81 81" fill="none" xmlns="http://www.w3.org/2000/svg">
<g clip-path="url(#clip0_121_680)">
<path fill-rule="evenodd" clip-rule="evenodd" d="M80.0346 40.5551C80.0346 62.656 62.1183 80.5724 40.0173 80.5724C17.9164 80.5724 0 62.656 0 40.5551C0 18.4541 17.9164 0.53775 40.0173 0.53775C62.1183 0.53775 80.0346 18.4541 80.0346 40.5551ZM44.7391 68.4001C44.6121 67.8088 44.5485 67.2056 44.5491 66.6008C44.486 63.5958 45.8411 60.7364 48.2068 58.8824C50.2115 57.4859 52.7806 57.181 55.0565 58.0694C55.4671 58.206 55.9195 58.1131 56.2431 57.8257C56.5668 57.5384 56.7125 57.1002 56.6255 56.6763C56.5384 56.2523 56.2319 55.907 55.8212 55.7704C52.8059 54.6427 49.4285 55.0731 46.7924 56.9211C43.7998 59.2329 42.0718 62.8198 42.1292 66.6008C42.1245 67.5481 42.2466 68.4918 42.4922 69.4068C40.8369 70.111 39.1043 70.774 37.2833 71.3778C36.9999 71.2845 36.7247 71.1865 36.4487 71.0884L36.4476 71.088L36.4444 71.0869C36.3211 71.043 36.1977 70.9991 36.0733 70.9555V59.341C36.0735 59.0209 35.9469 58.7137 35.7212 58.4868C32.9329 55.3934 31.3432 51.4046 31.2395 47.2413C31.27 43.3798 32.2242 39.5816 34.0224 36.1641C34.5107 35.419 34.6411 34.4949 34.3781 33.6437C34.1306 33.0242 33.6393 32.5337 33.0193 32.2873C29.4252 31.0243 25.6497 30.3538 21.8404 30.3018C19.606 29.5363 17.8845 27.7304 17.2268 25.4619H19.1398C20.4763 25.4619 21.5597 24.3785 21.5597 23.042V20.38L23.7485 19.8368C25.2065 19.4663 26.4753 18.5683 27.3095 17.3164L30.1372 13.0815C30.6108 12.3623 31.3229 11.8332 32.1481 11.5872C35.4123 10.5659 38.7881 9.9431 42.2018 9.73231C43.7224 9.85765 45.1114 10.6441 46.0011 11.8836C48.3301 15.1314 49.5442 19.0463 49.4616 23.042C49.4616 25.3578 48.6364 26.9139 47.0066 27.6544C45.2851 28.3116 43.3752 28.2717 41.6827 27.5431C41.2216 27.36 40.9189 26.9139 40.9192 26.4178V18.2021C40.9192 17.5338 40.3775 16.9921 39.7092 16.9921C39.041 16.9921 38.4993 17.5338 38.4993 18.2021V26.4178C38.5048 27.9043 39.4105 29.2392 40.7897 29.7936C42.6042 30.5332 44.5958 30.7242 46.5177 30.3429L46.934 33.2468C47.0703 34.2013 47.7647 34.9815 48.6969 35.2276C50.5265 35.8669 52.1619 36.9641 53.4472 38.4146C55.3263 40.2828 59.5576 46.8045 62.8088 54.3862C57.9612 60.4031 51.773 65.2023 44.7391 68.4001ZM19.9484 20.8371L17.2329 21.5159C17.2156 22.0635 17.2301 22.6116 17.2763 23.1574H19.9484V20.8371Z" fill="#2AA89B"/>
</g>
<defs>
<clipPath id="clip0_121_680">
<rect width="80.0346" height="80.0346" fill="white" transform="translate(0 0.53775)"/>
</clipPath>
</defs>
</svg>
