<svg width="119" height="81" viewBox="0 0 119 81" fill="none" xmlns="http://www.w3.org/2000/svg">
<g clip-path="url(#clip0_119_3)">
<path d="M27.7377 18.7599C32.9677 18.7599 37.2075 14.6807 37.2075 9.64883C37.2075 4.61692 32.9677 0.53775 27.7377 0.53775C22.5077 0.53775 18.2679 4.61692 18.2679 9.64883C18.2679 14.6807 22.5077 18.7599 27.7377 18.7599Z" fill="#2AA89B"/>
<path d="M49.6867 42.504L33.872 41.7668L25.8604 26.2806L27.993 28.8412C28.966 25.5735 27.0015 22.1655 23.6052 21.2294C19.193 20.0131 14.4535 20.6247 10.5302 22.9163C6.60698 25.2079 3.85609 28.9714 2.94176 33.2986L0.226799 46.147C-0.449447 49.3482 0.404149 52.6721 2.55251 55.2017C4.60629 57.6198 7.63584 59.0635 10.8648 59.1862C11.7705 59.3809 11.6854 59.3098 21.3307 59.2824L5.99588 71.8079C3.82827 73.5782 3.56283 76.7042 5.40309 78.79C7.24451 80.8766 10.4938 81.13 12.6601 79.3603L38.7316 58.0654C39.8075 57.1864 40.4328 55.946 40.5311 54.6479C37.9828 54.5292 31.6086 54.2319 29.0664 54.1134C26.2003 53.9798 23.8774 52.0063 23.2656 49.4417C22.1994 44.9709 19.0057 31.5577 19.0057 31.5577L27.3114 47.612C28.0035 48.9499 29.3933 49.8235 30.9447 49.8958C31.1086 49.9034 49.3188 50.7552 49.4829 50.7552C51.7567 50.7552 53.6533 49.036 53.7646 46.8269C53.8793 44.5498 52.0535 42.6142 49.6867 42.504Z" fill="#2AA89B"/>
<path d="M77.4821 32.3338C75.4795 31.6533 73.4529 32.1991 73.0894 33.1898C72.7261 34.1804 72.1062 40.842 74.1087 41.5225C76.1117 42.203 79.978 36.6451 80.3415 35.6545C80.7052 34.664 79.4849 33.0143 77.4821 32.3338Z" fill="#2AA89B"/>
<path d="M118.02 58.8098C117.486 58.622 116.894 58.8865 116.699 59.4009L116.677 59.4577C115.756 61.8845 114.249 64.1669 112.573 65.9206C111.443 67.0525 110.073 68.1785 108.455 68.911C108.22 66.2732 107.237 62.1983 99.1189 56.1738C85.5979 47.5666 82.3446 43.3398 82.3446 43.3398C82.3446 43.3398 81.568 42.0316 80.5952 40.4185C78.6822 42.7474 76.0398 45.1634 73.1347 44.176C69.9357 43.0889 69.8244 38.9159 69.788 37.5446C69.7584 36.4253 69.8263 35.0156 69.9837 33.86L69.9125 33.8761C67.2428 34.4863 65.1491 36.4773 64.4835 39.0385L61.464 40.8171C60.9145 41.1405 60.5364 41.6765 60.4268 42.287C60.3171 42.8979 60.4859 43.5245 60.8904 44.0069L62.6899 46.1529C64.1581 47.9038 66.6456 48.5226 68.8118 47.6756C69.7445 47.311 70.7939 47.3366 71.7083 47.7419C72.6226 48.1472 73.3223 48.8979 73.6413 49.8165C74.1471 51.2748 74.7812 53.0453 75.4776 54.8618L70.621 53.7753C70.0247 53.642 69.4002 53.6857 68.8306 53.9011L62.9342 56.129C61.3791 56.7165 60.6134 58.4058 61.224 59.9023C61.8344 61.3982 63.5908 62.135 65.1452 61.5477L70.1664 59.6507L78.3052 61.4712C78.429 61.7192 78.5521 61.9599 78.6745 62.1907L75.3288 77.0085C74.9741 78.5794 76.0101 80.1294 77.6426 80.4707C79.2775 80.8122 80.8869 79.8134 81.2411 78.2442L83.7333 67.2064C85.1998 67.6864 87.1071 68.0656 89.1764 68.4401C89.7446 66.8315 90.6909 65.3565 91.976 64.1201C92.5718 63.5469 93.5369 63.5469 94.1329 64.1201C94.7463 64.7107 94.6974 65.652 94.1329 66.1951C91.7532 68.4845 91.0716 71.7403 92.0084 74.5858C87.9382 74.5858 89.4787 74.5858 88.4946 74.5858C86.8238 74.5858 85.4697 75.8888 85.4697 77.4963C85.4697 79.1036 86.824 80.4069 88.4946 80.4069C101.377 80.4069 100.909 80.4357 101.79 80.2731C105.132 79.6561 107.278 77.282 108.151 74.2956C111.209 72.9067 113.567 70.7078 115.414 68.0128C116.967 65.6527 118.166 62.8414 118.682 59.9056C118.764 59.4435 118.494 58.9764 118.02 58.8098Z" fill="#2AA89B"/>
</g>
<defs>
<clipPath id="clip0_119_3">
<rect width="118.697" height="79.9999" fill="white" transform="translate(0 0.53775)"/>
</clipPath>
</defs>
</svg>
