<svg width="82" height="82" viewBox="0 0 82 82" fill="none" xmlns="http://www.w3.org/2000/svg">
<g clip-path="url(#clip0_119_13)">
<path d="M57.0607 50.9801C55.8511 50.5529 54.6272 50.8956 54.4076 51.5174C54.1882 52.1391 53.8138 56.3205 55.0232 56.7477C56.2327 57.1749 58.5678 53.6862 58.7874 53.0644C59.0072 52.4427 58.2701 51.4075 57.0607 50.9801Z" fill="#2AA89B"/>
<path d="M81.5428 67.5992C81.2199 67.4814 80.8628 67.6476 80.7449 67.9703L80.7319 68.0061C80.5171 68.596 80.2472 69.1699 79.9612 69.6844C78.9599 71.5044 77.4558 73.1474 75.7662 73.9399C75.6239 72.2842 74.7384 70.086 70.1275 65.9447C61.9617 60.5418 59.9971 57.8888 59.9971 57.8888C59.9971 57.8888 59.528 57.0677 58.9405 56.0552C57.7889 57.5111 56.1929 59.0347 54.4348 58.4138C52.5029 57.7315 52.4357 55.1119 52.4136 54.2513C52.3957 53.5488 52.4366 52.664 52.5319 51.9386L52.489 51.9487C50.8767 52.3317 49.6122 53.5814 49.2103 55.1891L47.3867 56.3055C46.6908 56.7314 46.5283 57.6731 47.0403 58.3079L48.1271 59.6548C49.0139 60.7539 50.5161 61.1421 51.8244 60.6107C52.3877 60.3818 53.0215 60.3979 53.5737 60.6523C54.1259 60.9066 54.5485 61.3778 54.741 61.9545C55.4858 64.1859 56.6896 67.5812 57.7809 69.7217L55.7605 79.0226C55.5463 80.0086 56.172 80.9816 57.1581 81.1958C58.1457 81.4101 59.1174 80.7828 59.3313 79.7981L60.8363 72.8697C61.7229 73.1715 62.8761 73.4096 64.1272 73.6448C64.4636 72.653 65.0251 71.7216 65.8142 70.9324C66.1742 70.5727 66.757 70.5727 67.1168 70.9324C67.4875 71.3031 67.4576 71.894 67.1168 72.2348C65.6839 73.6676 65.266 75.7095 65.8337 77.5017H63.9309H63.7118C62.7028 77.5017 61.8849 78.3197 61.8849 79.3287C61.8849 80.3377 62.7028 81.1556 63.7118 81.1556C71.4927 81.1556 70.4781 81.1524 71.5471 81.1598C73.3734 81.1598 75.0556 79.1942 75.5827 77.3194C78.083 76.1398 80.2765 73.7389 81.425 70.3193C81.6393 69.6888 81.8233 68.9963 81.9429 68.2867C81.992 67.997 81.8291 67.7038 81.5428 67.5992Z" fill="#2AA89B"/>
<path d="M6.59068 79.0278L7.09168 73.6803C5.31292 71.1102 5.09059 67.2611 5.80671 64.7945C3.77713 63.7673 1.66721 61.8997 0.0517149 59.3156L1.52179e-05 77.6668C-0.00590704 79.7986 1.71747 81.5316 3.84916 81.5377C3.85284 81.5377 3.85668 81.5377 3.86037 81.5377C4.97327 81.5377 5.97381 81.0636 6.67856 80.3094C6.58268 79.9001 6.54939 79.4689 6.59068 79.0278Z" fill="#2AA89B"/>
<path d="M14.9994 75.0661L14.558 79.7745C14.4997 80.3961 14.3022 80.9703 14.001 81.4716C15.7949 81.1436 17.158 79.5779 17.1635 77.6887L17.1785 72.3784C16.473 73.5204 15.7517 74.4126 14.9994 75.0661Z" fill="#2AA89B"/>
<path d="M8.23365 14.7443C12.1563 14.7443 15.3362 11.5644 15.3362 7.6418C15.3362 3.71918 12.1563 0.539261 8.23365 0.539261C4.31102 0.539261 1.1311 3.71918 1.1311 7.6418C1.1311 11.5644 4.31102 14.7443 8.23365 14.7443Z" fill="#2AA89B"/>
<path d="M42.8821 55.8392L41.0225 54.7007C40.6254 53.1124 39.3937 51.8031 37.6353 51.3859C37.7324 52.1257 37.7742 53.0279 37.756 53.7444C37.7336 54.6221 37.6649 57.2934 35.6949 57.9892C33.7712 58.6685 30.764 55.2281 30.7487 55.2488C27.323 51.4283 24.5602 46.8792 22.8064 42.5218C22.8711 42.4577 22.9362 42.3941 22.9969 42.3239C24.2318 40.8895 24.0698 38.7257 22.6357 37.491L13.9491 30.0136L10.6788 21.8295L15.9017 28.1119L17.272 28.7468V21.9635C17.272 19.4976 15.2732 17.4987 12.8073 17.4987H4.63136C2.16546 17.4987 0.166615 19.4976 0.166615 21.9635C0.166615 50.6245 0.104511 40.87 0.069458 53.2458C1.27472 52.6334 2.83867 52.8919 3.78079 54.3688C4.67105 55.7504 6.223 57.2367 7.77639 57.9359C7.80904 46.4166 7.81449 47.1863 7.78936 46.9134H9.54811C9.5217 47.1972 9.5321 46.3236 9.49785 58.4401C10.0328 58.5211 10.6852 58.487 11.2408 58.3978C12.6512 57.7129 13.396 57.7064 17.2217 57.1405C17.2518 46.4891 17.272 45.8492 17.272 45.8492C17.272 45.8492 7.57872 37.6991 5.84782 36.2108C5.32522 35.7615 5.03567 35.1338 4.99117 34.4966L4.31411 24.3733L7.89564 33.3356C8.10004 33.8472 8.4248 34.3016 8.84224 34.6611L18.1635 42.6854C18.7875 43.2224 19.5494 43.4928 20.3128 43.5117C22.2403 48.3498 25.3139 53.3036 29.1229 57.437C29.1228 57.4371 29.2132 57.5304 29.213 57.5304C16.6766 59.2922 14.3421 59.7482 11.9048 60.4589C11.7755 60.4764 12.1091 60.424 11.3352 60.5481C9.95738 60.7834 7.98111 60.5109 6.35233 59.6152C3.58136 58.1854 1.98667 55.4785 1.82821 55.3C1.34674 54.7584 0.446081 55.2886 0.727469 55.9828C1.62493 58.1966 3.26427 60.3824 4.95308 61.6946C5.96466 62.5155 7.34775 63.2813 8.66905 63.6662C6.9063 66.2176 7.30693 70.8384 9.30065 73.0314L8.71979 79.2278C8.62376 80.2524 9.37652 81.1606 10.4011 81.2566C11.4215 81.353 12.3335 80.6031 12.4298 79.5755C12.9163 74.3884 12.8726 74.8524 12.9603 73.918C14.1444 73.2183 15.1498 71.7029 15.8832 70.3539L15.8487 70.3369C16.5261 69.2631 16.9127 67.9194 16.9127 66.4873C16.9127 65.9346 17.361 65.4864 17.9135 65.4864C18.4661 65.4864 18.9144 65.9346 18.9144 66.4873C18.9144 67.7345 18.6783 68.9165 18.2578 69.9741C21.0371 70.3324 26.6508 71.0322 28.2384 71.2024L28.0307 79.3541C28.0044 80.3827 28.817 81.2377 29.8458 81.264C29.8619 81.2643 29.8782 81.2646 29.8941 81.2646C30.9009 81.2646 31.73 80.4614 31.7556 79.4489L31.9947 70.0616C33.236 67.7342 34.3295 64.7143 35.1817 62.1985C35.3858 61.5979 35.5649 60.7371 36.5736 60.2724C37.9751 59.6264 38.4148 60.6438 39.9962 60.4421C40.4411 60.3858 40.8512 60.2489 41.2528 60.0104C41.2743 59.9978 41.2959 59.9861 41.317 59.973C41.8985 59.6095 43.2757 57.94 43.44 57.5349C43.6944 56.9067 43.4554 56.1903 42.8821 55.8392Z" fill="#2AA89B"/>
<path d="M35.722 50.9568C35.4981 50.3227 34.2499 49.9732 33.0167 50.4089C31.7834 50.8446 31.0316 51.9005 31.2557 52.5345C31.4799 53.1689 33.8613 56.7265 35.0944 56.2907C36.3275 55.855 35.946 51.5908 35.722 50.9568Z" fill="#2AA89B"/>
</g>
<defs>
<clipPath id="clip0_119_13">
<rect width="81.9515" height="80.9984" fill="white" transform="translate(0 0.539307)"/>
</clipPath>
</defs>
</svg>
