<svg width="258" height="157" viewBox="0 0 258 157" fill="none" xmlns="http://www.w3.org/2000/svg">
<path d="M230.9 88.7009H218.072V140.557H230.9V121.121L241.517 140.557H256.079L240.879 114.507L256.242 88.7178L242.23 88.7177L230.9 107.226V88.7009Z" fill="white" stroke="white"/>
<path d="M189.031 20.3301H177.128L177.229 72.2468H189.367L199.813 46.0398L199.971 72.2468H212.13V20.3301H199.381L189.031 45.5594V20.3301Z" fill="white" stroke="white"/>
<path d="M189.031 81.2871H177.546L177.229 140.512H189.367L199.813 114.305L199.971 140.512H212.13V88.5951H199.381L189.031 113.824V81.2871Z" fill="white" stroke="white"/>
<path d="M189.186 3.22621L178.857 4.1813C182.464 22.5752 210.426 19.4356 207.564 0.998047L197.54 1.9531C197.751 7.9237 190.991 8.56772 189.186 3.22621Z" fill="white" stroke="white"/>
<path d="M46.6918 20.0068H30.9507L57.9838 55.0628L41.8783 82.5627C39.3036 88.8077 33.7159 89.2459 33.0038 82.5627H20.5138C22.6503 97.6821 31.7438 102.503 45.1651 98.0108V140.003H57.8742V100.531H66.2008V150.381H78.8004V87.5825H53.2558L93.0909 20.1115L79.0243 20.1114L64.9803 42.7017L46.6918 20.0068Z" fill="white" stroke="white"/>
<path d="M128.091 19.9824H97.6263V53.9247C97.6263 59.1487 94.2585 60.2891 90.7673 60.1839V72.1374C109.245 74.4055 109.466 60.1839 109.466 53.4341C109.466 44.1766 109.487 32.8892 109.487 32.8892H115.079V72.1015H127.611L128.091 19.9824Z" fill="white" stroke="white"/>
<path d="M28.1938 19.9995H1.45162L0.999878 72.2H13.6069V32.8064H28.1938V19.9995Z" fill="white" stroke="white"/>
<path fill-rule="evenodd" clip-rule="evenodd" d="M170.606 20.1548H149.228C132.199 26.8686 132.199 43.9448 146.12 51.7254L132.21 72.2053H146.721L158.798 54.5842V78.5729H170.358L170.606 20.1548ZM159.298 31.5972H151.649C146.403 34.5109 146.562 40.1064 151.744 42.3998H159.298V31.5972Z" fill="white"/>
<path d="M149.228 20.1548V19.6548H149.133L149.044 19.6896L149.228 20.1548ZM170.606 20.1548L171.106 20.1569L171.108 19.6548H170.606V20.1548ZM146.12 51.7254L146.534 52.0064L146.84 51.5551L146.364 51.289L146.12 51.7254ZM132.21 72.2053L131.797 71.9243L131.266 72.7053H132.21V72.2053ZM146.721 72.2053V72.7053H146.985L147.134 72.4879L146.721 72.2053ZM158.798 54.5842H159.298V52.9703L158.386 54.3015L158.798 54.5842ZM158.798 78.5729H158.298V79.0729H158.798V78.5729ZM170.358 78.5729V79.0729H170.856L170.858 78.575L170.358 78.5729ZM151.649 31.5972V31.0972H151.52L151.406 31.1601L151.649 31.5972ZM159.298 31.5972H159.798V31.0972H159.298V31.5972ZM151.744 42.3998L151.542 42.8571L151.639 42.8998H151.744V42.3998ZM159.298 42.3998V42.8998H159.798V42.3998H159.298ZM149.228 20.6548H170.606V19.6548H149.228V20.6548ZM146.364 51.289C139.54 47.4748 136.193 41.4266 136.567 35.5719C136.94 29.726 141.035 23.9224 149.411 20.6199L149.044 19.6896C140.392 23.1009 135.973 29.1924 135.569 35.5082C135.166 41.8152 138.78 48.1954 145.876 52.1619L146.364 51.289ZM132.624 72.4862L146.534 52.0064L145.707 51.4445L131.797 71.9243L132.624 72.4862ZM146.721 71.7053H132.21V72.7053H146.721V71.7053ZM158.386 54.3015L146.309 71.9226L147.134 72.4879L159.211 54.8669L158.386 54.3015ZM159.298 78.5729V54.5842H158.298V78.5729H159.298ZM170.358 78.0729H158.798V79.0729H170.358V78.0729ZM170.106 20.1527L169.858 78.5708L170.858 78.575L171.106 20.1569L170.106 20.1527ZM151.649 32.0972H159.298V31.0972H151.649V32.0972ZM151.947 41.9426C149.494 40.8571 148.314 39.0378 148.286 37.2234C148.258 35.4024 149.387 33.4255 151.892 32.0343L151.406 31.1601C148.665 32.6826 147.251 34.9602 147.286 37.2389C147.322 39.5239 148.813 41.6491 151.542 42.8571L151.947 41.9426ZM159.298 41.8998H151.744V42.8998H159.298V41.8998ZM158.798 31.5972V42.3998H159.798V31.5972H158.798Z" fill="white"/>
<path d="M112.195 88.6597V100.633H97.6713V108.337H111.155V120.156H97.6713V127.897H112.154V139.882H85.8523V88.6597H112.195Z" fill="white" stroke="white"/>
<circle cx="142.698" cy="147.406" r="8.85452" fill="white"/>
<path d="M136.777 98.6662L133.119 87.8252C108.376 97.8891 113.511 135.919 139.432 139.172C165.354 142.424 180.988 113.789 162.082 93.5644L154.081 101.73C163.084 115.223 156.485 127.717 142.874 127.052C129.263 126.387 122.178 108.881 136.777 98.6662Z" fill="white" stroke="white"/>
</svg>
