<svg width="29" height="30" viewBox="0 0 29 30" fill="none" xmlns="http://www.w3.org/2000/svg">
<g clip-path="url(#clip0_177_28)">
<path fill-rule="evenodd" clip-rule="evenodd" d="M29 15C29 23.0081 22.5081 29.5 14.5 29.5C6.49187 29.5 0 23.0081 0 15C0 6.99187 6.49187 0.5 14.5 0.5C22.5081 0.5 29 6.99187 29 15ZM15.5579 15.5676H18.1452L18.4877 12.2395H15.5581V10.279C15.5581 9.54359 16.0441 9.37093 16.3897 9.37093H18.4965V6.13739L15.5928 6.12524C12.3701 6.12524 11.6378 8.53915 11.6378 10.0807V12.2364H9.77344V15.5676H11.6378V25.0465H15.5579V15.5676Z" fill="white"/>
</g>
<defs>
<clipPath id="clip0_177_28">
<rect width="29" height="29" fill="white" transform="translate(0 0.5)"/>
</clipPath>
</defs>
</svg>
