<svg width="18" height="18" viewBox="0 0 18 18" fill="none" xmlns="http://www.w3.org/2000/svg">
<g clip-path="url(#clip0_89_68)">
<path d="M9.00004 18.0001C9.00004 18.0001 15.7501 11.6033 15.7501 6.75004C15.7501 4.95982 15.0389 3.24292 13.773 1.97704C12.5072 0.711163 10.7903 0 9.00004 0C7.20982 0 5.49292 0.711163 4.22704 1.97704C2.96116 3.24292 2.25 4.95982 2.25 6.75004C2.25 11.6033 9.00004 18.0001 9.00004 18.0001ZM9.00004 10.1251C8.10493 10.1251 7.24648 9.76948 6.61354 9.13654C5.9806 8.5036 5.62502 7.64515 5.62502 6.75004C5.62502 5.85493 5.9806 4.99648 6.61354 4.36354C7.24648 3.7306 8.10493 3.37502 9.00004 3.37502C9.89515 3.37502 10.7536 3.7306 11.3865 4.36354C12.0195 4.99648 12.3751 5.85493 12.3751 6.75004C12.3751 7.64515 12.0195 8.5036 11.3865 9.13654C10.7536 9.76948 9.89515 10.1251 9.00004 10.1251Z" fill="white"/>
</g>
<defs>
<clipPath id="clip0_89_68">
<rect width="18" height="18" fill="white"/>
</clipPath>
</defs>
</svg>
