<svg width="29" height="30" viewBox="0 0 29 30" fill="none" xmlns="http://www.w3.org/2000/svg">
<g clip-path="url(#clip0_177_21)">
<path fill-rule="evenodd" clip-rule="evenodd" d="M0 15C0 6.9931 6.4931 0.5 14.5 0.5C22.5069 0.5 29 6.9931 29 15C29 23.0069 22.5069 29.5 14.5 29.5C6.4931 29.5 0 23.0069 0 15ZM10.1632 5.66311C7.40182 5.66311 5.16325 7.90168 5.16325 10.6631V19.3368C5.16325 22.0983 7.40182 24.3368 10.1632 24.3368H18.837C21.5984 24.3368 23.837 22.0983 23.837 19.3368V10.6631C23.837 7.90168 21.5984 5.66311 18.837 5.66311H10.1632Z" fill="white"/>
<path d="M20.098 10.7647C19.9829 10.4529 19.7994 10.1707 19.5608 9.93905C19.3292 9.70053 19.0471 9.51695 18.7351 9.40189C18.4821 9.30362 18.102 9.18664 17.4019 9.15477C16.6445 9.12024 16.4174 9.11279 14.5 9.11279C12.5825 9.11279 12.3554 9.12004 11.5982 9.15458C10.8981 9.18664 10.5178 9.30362 10.2649 9.40189C9.95294 9.51695 9.67071 9.70053 9.43924 9.93905C9.20072 10.1707 9.01715 10.4527 8.90189 10.7647C8.80362 11.0178 8.68664 11.3981 8.65477 12.0982C8.62024 12.8554 8.61279 13.0825 8.61279 15C8.61279 16.9174 8.62024 17.1445 8.65477 17.9019C8.68664 18.602 8.80362 18.9821 8.90189 19.2351C9.01715 19.5471 9.20053 19.8292 9.43905 20.0608C9.67071 20.2994 9.95275 20.4829 10.2647 20.598C10.5178 20.6965 10.8981 20.8134 11.5982 20.8453C12.3554 20.8798 12.5823 20.8871 14.4998 20.8871C16.4176 20.8871 16.6447 20.8798 17.4017 20.8453C18.1018 20.8134 18.4821 20.6965 18.7351 20.598C19.3614 20.3564 19.8564 19.8614 20.098 19.2351C20.1963 18.9821 20.3132 18.602 20.3453 17.9019C20.3798 17.1445 20.3871 16.9174 20.3871 15C20.3871 13.0825 20.3798 12.8554 20.3453 12.0982C20.3134 11.3981 20.1965 11.0178 20.098 10.7647ZM14.5 18.6873C12.4634 18.6873 10.8124 17.0365 10.8124 14.9998C10.8124 12.9632 12.4634 11.3124 14.5 11.3124C16.5365 11.3124 18.1875 12.9632 18.1875 14.9998C18.1875 17.0365 16.5365 18.6873 14.5 18.6873ZM18.3333 12.0284C17.8574 12.0284 17.4715 11.6425 17.4715 11.1666C17.4715 10.6907 17.8574 10.3049 18.3333 10.3049C18.8092 10.3049 19.195 10.6907 19.195 11.1666C19.1948 11.6425 18.8092 12.0284 18.3333 12.0284Z" fill="white"/>
<path d="M15.8482 14.9999C15.8482 15.7444 15.2447 16.348 14.5002 16.348C13.7556 16.348 13.1521 15.7444 13.1521 14.9999C13.1521 14.2554 13.7556 13.6519 14.5002 13.6519C15.2447 13.6519 15.8482 14.2554 15.8482 14.9999Z" fill="white"/>
</g>
<defs>
<clipPath id="clip0_177_21">
<rect width="29" height="29" fill="white" transform="translate(0 0.5)"/>
</clipPath>
</defs>
</svg>
