<svg width="17" height="17" viewBox="0 0 17 17" fill="none" xmlns="http://www.w3.org/2000/svg">
<path fill-rule="evenodd" clip-rule="evenodd" d="M1.89199 0.512277C2.0676 0.336928 2.27847 0.200902 2.51063 0.113215C2.74279 0.0255281 2.99094 -0.0118187 3.23862 0.00364974C3.48631 0.0191182 3.72788 0.0870487 3.94732 0.20294C4.16677 0.318831 4.35908 0.480036 4.51151 0.675872L6.31307 2.99029C6.64327 3.41483 6.75969 3.96784 6.62922 4.48974L6.08022 6.68774C6.05183 6.80158 6.05337 6.92083 6.08467 7.0339C6.11597 7.14698 6.17598 7.25004 6.25887 7.33308L8.72484 9.79905C8.80798 9.88211 8.91121 9.94221 9.02448 9.97352C9.13775 10.0048 9.2572 10.0063 9.37119 9.9777L11.5682 9.4287C11.8257 9.36431 12.0945 9.35931 12.3543 9.41408C12.6141 9.46885 12.858 9.58196 13.0676 9.74485L15.382 11.5454C16.2141 12.1928 16.2904 13.4222 15.5456 14.1659L14.5079 15.2037C13.7652 15.9464 12.6551 16.2726 11.6204 15.9083C8.97192 14.9764 6.56726 13.4602 4.58478 11.4721C2.59684 9.48994 1.08064 7.08564 0.148647 4.43755C-0.214675 3.40379 0.111512 2.29275 0.854213 1.55005L1.89199 0.512277Z" fill="white"/>
</svg>
